<svg version="1.1" xmlns="http://www.w3.org/2000/svg" viewBox="-3473.964181870479 -1039.2833129882813 10454.16418187048 2410.4690185546874"><desc>Created with Snap</desc><defs></defs><g><g><g transform="matrix(1,0,0,-1,0,0)"><path d="M514 150Q519 157 518 159Q517 161 517 162L529 162Q531 166 531 167Q531 169 531 169Q531 170 532 171Q534 172 539 174Q541 177 544 180Q547 184 549 187Q559 191 569 190Q579 189 589 187Q596 168 596 159Q597 151 595 145Q593 140 589 134Q586 128 586 115Q586 107 585 104Q579 99 575 96Q571 94 570 85Q564 85 561 83Q558 81 555 78Q553 75 550 72Q547 70 541 70Q536 68 533 63Q531 59 529 55Q524 55 520 52Q516 50 511 49Q504 42 502 41Q500 40 498 40Q492 38 489 32Q487 27 481 25Q469 21 454 21Q440 21 432 10Q416 8 401 3Q387 -1 372 -6Q365 0 353 -1Q342 -2 334 -2Q327 -2 322 3Q318 2 311 0Q304 -1 297 -1Q290 -1 284 1Q278 4 276 10Q274 9 271 8Q268 7 266 6Q244 11 223 17Q203 23 183 34L165 34Q162 40 155 42Q149 44 147 51Q143 53 139 54Q136 55 131 56Q122 64 119 68Q117 73 103 72Q105 81 103 82Q101 84 99 86Q93 91 94 95Q95 99 87 101Q87 104 86 106Q85 108 85 111Q83 113 79 115Q76 117 74 119Q72 130 69 133Q66 145 64 147Q63 150 63 154Q61 157 60 159Q59 162 55 164Q53 176 51 190Q49 204 42 214Q44 228 39 242Q35 257 35 271Q35 275 36 278Q37 281 37 285Q37 294 34 303Q31 312 31 320Q31 329 35 337Q39 345 31 354Q35 365 33 367Q31 369 31 372Q31 377 33 380Q35 384 35 389Q33 409 37 419Q41 429 39 442Q40 443 42 446Q44 450 46 454Q49 459 50 463Q52 468 53 470Q53 472 51 474Q50 477 50 480Q50 482 52 484Q54 486 55 489Q56 492 54 497Q53 502 59 503Q58 517 64 529Q71 541 67 554Q73 558 76 562Q79 566 78 574Q86 578 90 585Q94 593 96 602Q107 607 109 617Q112 627 123 632Q128 641 130 643Q133 645 135 649Q140 656 147 658Q155 661 158 666Q173 678 176 685Q179 692 189 696Q197 699 200 701Q203 703 208 710L222 710Q229 713 237 719Q243 718 248 719Q253 720 258 725Q272 725 287 730Q303 735 317 728Q323 731 331 731Q340 731 349 730Q358 729 367 728Q376 728 384 730Q390 725 398 724Q407 723 415 726Q418 719 424 719Q430 720 434 715Q439 715 442 714Q445 713 449 712Q451 709 453 705Q456 702 458 698Q469 697 478 690Q487 683 489 670Q492 668 495 665Q499 663 500 659Q507 659 510 656Q513 653 516 648Q525 646 531 641Q538 637 545 631Q545 625 546 618Q548 612 540 609L541 599Q539 596 537 593Q536 591 534 588Q529 580 526 572Q523 564 511 564Q506 564 501 565Q497 567 492 567Q485 573 483 578Q482 583 471 582Q471 593 467 596Q463 600 461 609Q454 611 450 616Q447 621 442 626Q433 628 428 632Q423 636 412 636Q395 645 382 646Q369 647 355 649Q349 648 346 645Q344 642 337 647Q335 647 331 644Q328 641 324 648Q313 643 304 649Q302 647 300 644Q299 642 293 643Q279 644 265 642Q251 640 243 626Q235 624 229 617Q223 611 215 608Q213 607 211 604Q210 602 209 600L199 600Q194 596 192 589Q191 583 184 579Q185 571 179 566Q174 561 166 559Q164 554 161 548Q159 543 154 540Q158 535 156 532Q154 530 149 528Q149 517 148 514Q147 512 140 503Q142 500 141 496Q140 493 138 490Q140 485 138 484Q136 484 143 480Q135 472 134 460Q133 449 131 438Q130 431 128 427Q127 423 125 420Q124 417 123 412Q123 408 124 399Q121 397 120 394Q120 392 118 389Q120 381 119 374Q118 367 118 359Q118 349 119 339Q120 329 120 319Q120 316 121 313Q122 311 122 308Q117 295 118 289Q120 284 121 280Q123 272 123 264Q123 257 125 249Q126 244 131 239Q126 231 129 226Q133 221 133 213Q135 208 135 205Q135 202 134 200Q140 192 143 189Q146 186 148 176Q154 167 154 163Q154 159 161 157Q161 146 163 142Q165 138 169 135Q173 133 177 130Q182 128 185 121Q201 121 208 114Q216 107 230 106Q233 101 237 99Q242 97 245 93Q253 91 260 91Q268 92 273 86Q276 86 277 88Q278 90 285 88Q285 81 296 82Q307 84 309 85Q322 78 334 75Q346 73 358 73Q366 73 374 75Q383 77 392 77Q404 83 410 83Q416 84 421 86Q430 89 438 94Q446 99 455 101Q458 105 463 107Q468 110 472 113Q477 116 480 119Q484 122 484 127Q489 128 492 131Q496 134 499 138Q502 142 505 145Q509 149 514 150ZM820 18L815 23Q806 22 798 24Q790 27 781 28Q779 32 775 36Q771 41 766 43Q750 50 747 59Q744 68 730 70Q730 76 728 78Q726 81 723 83Q721 85 718 86Q715 88 712 92Q709 103 705 114Q701 125 690 131Q690 142 689 145Q688 149 686 149Q685 150 683 150Q682 151 680 156Q681 167 675 173Q670 180 668 183Q668 187 668 190Q669 194 671 198Q665 200 663 204Q662 209 661 214Q660 219 659 224Q658 229 653 232Q655 245 655 258Q656 272 648 283Q657 295 657 309Q658 324 663 338Q663 343 660 347Q658 352 656 357Q664 359 663 368Q663 377 663 384Q667 392 671 398Q675 404 678 409Q681 415 683 421Q685 428 685 438Q693 443 699 450Q705 457 711 464Q717 472 723 478Q729 485 737 490Q740 495 743 497Q747 500 749 507Q759 510 767 516Q776 522 784 527Q798 536 815 542Q833 549 850 551Q853 554 857 556Q861 558 865 561Q870 562 874 561Q879 561 882 561Q885 562 888 564Q891 566 893 573L899 561Q906 560 910 559Q914 559 919 566Q931 563 943 562Q955 561 967 559Q977 550 978 547Q980 545 982 541Q990 540 995 535Q1000 531 1009 531Q1012 523 1018 521Q1025 520 1027 512Q1034 511 1041 507Q1047 495 1057 488Q1068 481 1073 468Q1079 465 1082 460Q1086 456 1089 451Q1093 447 1096 442Q1100 438 1106 436Q1106 431 1104 428Q1102 426 1103 423Q1109 421 1110 416Q1112 411 1113 406Q1115 401 1117 396Q1120 392 1127 391Q1127 382 1128 377Q1129 373 1132 365Q1137 355 1137 345Q1138 336 1140 325Q1140 322 1142 320Q1145 318 1147 316Q1145 308 1147 300Q1149 292 1149 284Q1149 279 1146 277Q1143 276 1143 274Q1144 272 1148 269Q1153 267 1155 265Q1148 263 1146 257Q1145 252 1145 245Q1145 239 1145 232Q1146 225 1145 220Q1144 216 1142 214Q1140 212 1140 208Q1142 197 1140 195Q1138 193 1137 190Q1136 185 1136 181Q1137 177 1137 172Q1137 164 1133 159Q1130 154 1125 148Q1124 143 1126 141Q1129 139 1127 134Q1119 121 1112 108Q1105 96 1098 82Q1093 74 1086 70Q1080 66 1076 55Q1066 53 1055 46Q1045 40 1035 33Q1026 26 1019 20Q1012 14 1011 14Q1004 13 1001 10Q998 8 990 8Q985 9 983 3Q981 -3 972 -5Q959 -10 955 -10Q951 -10 946 -4Q939 -4 933 -7Q927 -9 920 -9Q914 -9 908 -7Q902 -4 896 -4Q891 -3 887 -4Q883 -4 878 -4Q873 -4 865 -2Q857 1 852 3Q841 9 835 13Q829 18 820 18ZM1059 367Q1050 371 1047 376Q1045 382 1042 389Q1040 396 1038 402Q1037 408 1037 411Q1033 417 1028 420Q1023 423 1018 426Q1014 430 1010 434Q1006 438 1005 446Q997 448 991 453Q986 458 978 460Q978 465 976 465Q974 466 973 470Q959 472 950 477Q942 482 931 487Q926 482 922 483Q919 485 914 485Q910 485 906 481Q902 477 897 475Q894 480 888 480Q882 481 877 483Q873 480 866 477Q860 475 855 473Q836 465 820 446Q808 436 799 430Q791 425 781 421Q780 412 775 405Q770 398 769 389Q758 385 752 371Q746 357 744 347Q750 338 752 327Q754 316 759 306Q754 301 750 297Q746 293 743 287Q734 284 734 272Q735 261 739 247Q743 234 748 222Q754 210 757 207Q755 204 753 201Q751 198 752 195Q763 183 766 163Q770 159 774 156Q778 154 781 151Q785 149 786 145Q788 141 788 133Q793 133 795 131Q798 129 800 126Q802 124 804 121Q806 119 811 119L820 109Q825 106 829 106Q833 107 835 99Q851 95 866 89Q881 83 896 77Q904 80 912 79Q920 78 928 80Q933 80 935 83Q938 87 943 87Q946 87 947 83Q949 80 956 82Q958 87 962 86Q967 85 970 87Q976 90 978 96Q981 102 990 102Q999 116 1012 126Q1025 137 1034 151L1044 151Q1047 165 1052 180Q1058 196 1056 210Q1061 227 1063 242Q1066 257 1066 271Q1066 276 1063 280Q1061 285 1061 290Q1061 295 1062 300Q1064 305 1064 310Q1064 324 1062 338Q1061 353 1059 367ZM1931 28Q1930 25 1927 23Q1924 21 1922 19Q1920 17 1919 14Q1918 11 1921 7Q1919 2 1908 1Q1897 1 1891 -6Q1887 -8 1883 -7Q1880 -5 1876 -8Q1867 -3 1860 4Q1854 12 1843 15Q1842 22 1837 26Q1832 30 1832 36Q1833 49 1830 50Q1827 52 1825 57Q1823 60 1823 63Q1823 67 1819 68Q1821 73 1823 78Q1826 83 1828 88Q1823 99 1815 109Q1807 119 1807 132Q1807 137 1807 141Q1808 145 1808 150Q1808 154 1806 157Q1805 160 1808 164Q1806 170 1803 175Q1801 181 1799 187Q1802 188 1803 194Q1804 201 1803 208Q1802 216 1801 223Q1800 231 1800 234Q1800 238 1801 242Q1802 246 1802 250Q1806 267 1802 279Q1798 291 1798 300Q1798 314 1799 327Q1800 340 1791 354Q1776 347 1773 333L1762 333Q1759 330 1759 328Q1759 327 1760 323Q1756 322 1755 319Q1754 316 1753 313Q1752 310 1748 304Q1744 299 1739 293Q1735 287 1730 281Q1726 275 1724 272Q1723 266 1721 260Q1720 255 1721 249L1709 249Q1706 238 1706 228Q1695 206 1690 193Q1685 180 1674 168Q1676 162 1674 160Q1672 158 1672 153Q1664 145 1659 139Q1654 133 1652 122Q1647 120 1645 116Q1644 113 1642 109Q1641 106 1638 103Q1636 100 1630 99Q1635 92 1634 86Q1634 81 1637 75Q1637 71 1633 70Q1629 70 1627 64Q1625 59 1625 54Q1626 49 1625 44Q1623 39 1622 38Q1622 38 1621 37Q1620 36 1620 33Q1620 31 1620 23Q1612 21 1615 13Q1610 15 1609 11Q1608 8 1609 4Q1604 5 1599 4Q1594 4 1591 -1Q1587 2 1582 0Q1578 -1 1573 -1Q1567 5 1561 4Q1555 3 1547 3Q1542 14 1535 21Q1528 28 1526 42Q1521 47 1518 53Q1516 59 1511 64Q1511 75 1507 85Q1503 96 1493 102Q1492 111 1488 118Q1484 126 1479 133Q1479 140 1476 145Q1474 151 1471 155Q1468 160 1465 165Q1462 170 1461 176Q1457 178 1454 181Q1452 185 1447 187Q1446 192 1444 195Q1443 199 1441 203Q1430 213 1424 226Q1418 239 1407 248Q1408 251 1406 253Q1405 255 1404 258Q1388 271 1379 289Q1371 308 1358 317Q1348 329 1343 336Q1339 343 1331 348Q1323 349 1323 345Q1323 341 1325 336Q1325 333 1324 330Q1323 327 1323 324Q1323 321 1324 318Q1325 316 1325 313Q1325 296 1322 279Q1320 263 1320 246Q1320 244 1321 241Q1322 238 1322 235Q1322 231 1320 228Q1319 225 1319 220Q1319 211 1320 201Q1322 192 1323 183Q1327 181 1328 178Q1330 175 1332 172Q1331 165 1331 158Q1332 151 1335 145Q1333 141 1331 138Q1329 135 1333 131Q1333 126 1336 124Q1339 122 1342 120Q1345 119 1347 117Q1350 115 1350 110Q1350 104 1345 100Q1341 97 1337 93Q1344 77 1345 61Q1342 59 1339 57Q1336 56 1334 52Q1324 41 1326 39Q1329 38 1328 35Q1317 30 1309 21Q1301 13 1289 11Q1282 17 1276 20Q1271 23 1261 21Q1257 24 1256 27Q1255 31 1249 31Q1249 39 1245 42Q1242 45 1239 51Q1241 61 1238 70Q1236 80 1236 90Q1236 100 1237 109Q1239 119 1239 129Q1239 134 1237 138Q1236 142 1236 147Q1236 150 1237 153Q1239 156 1239 159Q1239 162 1237 164Q1235 167 1234 170Q1232 176 1231 182Q1231 188 1231 194Q1231 199 1233 203Q1236 207 1236 212Q1236 221 1234 230Q1233 240 1233 250Q1233 257 1236 261Q1239 266 1239 271Q1239 279 1237 287Q1236 295 1234 303Q1236 319 1236 323Q1236 328 1237 330Q1239 333 1240 335Q1242 337 1242 342Q1242 347 1240 352Q1239 358 1239 363Q1239 375 1241 386Q1244 398 1244 410Q1244 415 1242 418Q1240 421 1239 425Q1242 427 1241 431Q1240 436 1240 439Q1242 452 1239 452Q1236 453 1234 455Q1236 465 1240 470Q1244 476 1245 490Q1245 497 1244 504Q1244 512 1248 519Q1257 521 1260 528Q1263 536 1265 544Q1272 543 1277 550Q1281 549 1286 550Q1292 552 1299 553Q1306 554 1315 552Q1324 551 1335 545L1335 533Q1344 526 1346 513Q1349 501 1353 491Q1355 486 1359 477Q1364 468 1369 459Q1375 450 1381 442Q1387 435 1392 433Q1392 428 1394 423Q1397 419 1397 414Q1400 410 1402 405Q1404 401 1409 398Q1409 388 1414 383Q1420 378 1422 369Q1425 367 1428 366Q1432 366 1435 364Q1439 354 1447 348Q1455 342 1462 334Q1469 325 1475 315Q1481 306 1491 300Q1491 292 1493 285Q1496 279 1504 277Q1502 270 1507 267Q1513 265 1516 260Q1514 253 1517 254Q1520 255 1520 250Q1528 242 1528 238Q1529 235 1531 233Q1535 228 1538 223Q1541 219 1544 214Q1548 210 1551 205Q1554 201 1555 201Q1553 189 1558 181Q1563 173 1570 171Q1577 170 1583 177Q1590 185 1592 205Q1603 210 1604 220Q1605 230 1607 240Q1612 244 1614 249Q1617 254 1622 257Q1624 262 1623 263Q1622 264 1620 268Q1624 269 1624 272Q1625 276 1625 279Q1631 280 1630 284Q1630 288 1638 289Q1636 297 1638 299Q1640 302 1640 309Q1644 311 1643 312Q1643 314 1650 312Q1649 315 1649 320Q1650 325 1647 327Q1649 329 1653 328Q1657 328 1659 328Q1660 339 1666 345Q1673 352 1674 363Q1690 371 1695 380Q1700 390 1709 396Q1708 402 1709 405Q1711 409 1713 411Q1715 414 1717 417Q1719 420 1719 425Q1727 427 1729 434Q1731 442 1739 446Q1737 452 1741 464Q1745 477 1753 477Q1754 491 1760 499Q1766 507 1768 519Q1774 519 1780 522Q1782 530 1788 533Q1794 537 1797 544Q1814 546 1821 552Q1828 559 1838 554Q1842 549 1843 547Q1844 545 1842 539L1855 539Q1857 534 1857 531Q1858 529 1857 524Q1859 520 1862 518Q1866 516 1867 514Q1865 503 1868 491Q1871 479 1866 468Q1873 466 1871 458Q1870 450 1876 446Q1874 443 1873 440Q1872 438 1871 435Q1876 434 1876 432Q1876 431 1875 428Q1875 426 1875 422Q1876 418 1882 411Q1882 409 1879 408Q1877 407 1877 402Q1879 400 1880 397Q1882 394 1884 392Q1879 381 1883 375Q1887 369 1887 362Q1884 348 1886 344Q1889 340 1881 337Q1884 327 1886 316Q1889 306 1889 295Q1889 290 1888 284Q1887 279 1887 274Q1887 269 1889 266Q1892 263 1892 261Q1892 258 1890 257Q1888 256 1890 251Q1890 240 1886 231Q1883 223 1891 214Q1888 207 1890 200Q1892 193 1892 185Q1895 183 1896 180Q1898 178 1900 176Q1896 170 1899 165Q1902 160 1902 154Q1899 152 1899 146Q1900 141 1902 135Q1905 129 1908 123Q1911 117 1912 114Q1911 100 1917 97Q1918 93 1918 89Q1918 85 1923 83Q1921 76 1924 72Q1927 68 1931 63Q1932 46 1929 40Q1926 35 1931 28ZM2477 299Q2475 297 2473 294Q2472 292 2472 290Q2472 286 2473 283Q2475 280 2475 277Q2475 272 2471 264Q2468 257 2468 251Q2463 251 2458 250Q2453 249 2458 242Q2455 240 2453 238Q2452 237 2450 235Q2437 232 2431 230Q2425 228 2419 227Q2413 226 2407 223Q2402 221 2399 213Q2392 215 2387 213Q2383 212 2378 209Q2374 207 2369 205Q2364 204 2358 207Q2350 205 2348 200Q2347 196 2342 192Q2335 190 2328 192Q2318 185 2310 172Q2286 173 2263 168Q2240 164 2217 162Q2208 161 2199 159Q2191 157 2182 157Q2180 157 2177 158Q2174 159 2171 159Q2165 159 2161 155Q2158 152 2155 152Q2150 152 2146 153Q2142 154 2137 154Q2128 154 2123 148Q2118 143 2116 135Q2115 128 2116 121Q2118 114 2123 111Q2121 106 2124 101Q2127 96 2127 91Q2125 79 2127 76Q2129 74 2130 71Q2128 63 2125 56Q2123 50 2123 42Q2123 39 2124 36Q2125 33 2125 30Q2116 21 2115 17Q2114 13 2109 10Q2105 8 2101 6Q2098 4 2096 -1Q2091 -1 2084 -3Q2078 -4 2072 -5Q2066 -6 2061 -5Q2056 -3 2055 5Q2047 8 2040 13Q2033 18 2026 22Q2025 35 2025 44Q2025 54 2033 65Q2029 80 2021 96Q2022 101 2025 105Q2028 109 2031 114Q2031 118 2030 122Q2030 127 2027 129Q2029 134 2027 146Q2026 158 2021 161Q2018 168 2019 172Q2021 177 2023 182Q2021 190 2022 199Q2023 208 2023 217Q2023 222 2022 226Q2021 230 2021 235Q2021 241 2023 246Q2026 252 2026 258Q2028 281 2024 287Q2021 294 2021 299Q2023 312 2022 326Q2021 340 2018 345Q2020 350 2018 354Q2017 359 2016 364Q2018 380 2014 391Q2011 402 2011 413Q2011 417 2012 421Q2013 425 2013 429Q2013 433 2012 436Q2011 439 2011 442Q2011 448 2011 453Q2012 459 2012 464Q2012 475 2007 484Q2003 493 2003 504Q2003 509 2005 511Q2008 514 2010 519Q2017 523 2017 527Q2018 531 2020 534Q2027 541 2028 540Q2030 540 2032 542Q2037 547 2037 547Q2038 548 2046 549Q2053 549 2058 548Q2064 547 2071 550Q2075 543 2082 540Q2089 537 2094 532Q2101 530 2111 532Q2122 535 2126 528Q2134 531 2139 532Q2144 533 2152 529Q2157 531 2161 532Q2165 534 2168 538Q2175 535 2182 537Q2190 539 2198 539Q2203 539 2208 537Q2214 535 2219 534Q2228 532 2237 532Q2247 533 2256 531Q2261 530 2265 528Q2270 526 2275 524Q2282 522 2286 522Q2290 523 2292 514Q2303 524 2312 520Q2322 517 2334 517Q2336 513 2338 512Q2340 512 2341 507Q2352 506 2361 500Q2370 494 2381 492Q2383 487 2383 483Q2384 479 2386 474Q2394 475 2399 473Q2404 472 2408 469Q2412 466 2416 464Q2421 462 2428 462Q2430 451 2437 445Q2444 439 2448 429Q2449 424 2457 421Q2456 412 2458 410Q2460 408 2463 400Q2464 392 2471 383Q2478 374 2478 366Q2478 364 2475 363Q2472 362 2472 357Q2472 352 2473 347Q2475 342 2475 337L2475 320Q2475 315 2476 309Q2477 304 2477 299ZM2393 318Q2391 327 2389 333Q2388 339 2391 349Q2380 356 2375 363Q2371 370 2373 384Q2368 387 2366 389Q2365 392 2361 396Q2355 401 2349 400Q2344 399 2343 408Q2335 407 2331 409Q2327 412 2321 413Q2319 417 2316 418Q2313 419 2314 424Q2307 426 2306 424Q2305 423 2300 422Q2298 427 2295 426Q2293 425 2295 433Q2292 432 2287 432Q2283 432 2281 434Q2272 441 2270 439Q2269 437 2267 437Q2264 441 2261 442Q2258 443 2254 442Q2251 441 2247 440Q2244 439 2240 440Q2233 445 2231 445Q2230 445 2222 445Q2207 452 2199 452Q2192 453 2186 455Q2182 448 2171 449Q2160 451 2154 453Q2146 446 2141 445Q2136 445 2132 446Q2129 447 2125 447Q2122 448 2117 447Q2110 441 2106 441Q2102 442 2100 438Q2099 429 2099 422Q2099 416 2095 407Q2101 394 2100 380Q2100 367 2100 353Q2100 348 2104 346Q2108 345 2107 342Q2101 336 2103 326Q2105 317 2105 309Q2105 304 2103 300Q2102 296 2102 291Q2104 279 2104 271Q2104 264 2109 259Q2107 255 2107 251Q2107 247 2107 243Q2118 232 2129 232Q2140 233 2152 229Q2160 229 2161 232Q2163 236 2168 238Q2170 236 2173 236Q2177 236 2180 236Q2184 237 2186 237Q2189 237 2190 234Q2200 233 2199 236Q2199 239 2204 241Q2213 241 2220 245Q2227 249 2235 249Q2238 249 2240 250Q2242 252 2244 254Q2248 254 2251 252Q2254 251 2257 251Q2266 251 2272 253Q2278 255 2288 253Q2290 260 2296 266Q2303 264 2306 267Q2310 271 2318 269Q2323 270 2325 273Q2327 276 2331 278Q2343 277 2347 282Q2352 287 2362 291Q2365 293 2368 292Q2372 292 2375 294Q2381 298 2384 305Q2388 312 2393 318ZM2986 487Q2980 482 2973 472Q2967 462 2961 460Q2959 459 2956 459Q2953 460 2950 460Q2945 460 2943 458Q2941 456 2937 455Q2930 459 2923 460Q2916 461 2909 465Q2903 465 2900 462Q2897 459 2892 459Q2887 459 2882 461Q2878 463 2874 458Q2855 464 2835 466Q2816 469 2797 474Q2789 470 2781 470Q2774 471 2766 469Q2763 468 2760 466Q2757 465 2754 465Q2750 465 2747 466Q2744 467 2740 467Q2734 467 2728 464Q2722 462 2716 462Q2711 462 2708 464Q2705 467 2700 462Q2697 467 2693 464Q2690 462 2687 460Q2671 460 2665 461Q2660 463 2653 462Q2653 455 2653 442Q2653 429 2653 415Q2654 402 2654 390Q2654 379 2653 375Q2656 368 2663 368Q2671 368 2676 368Q2690 362 2704 361Q2719 361 2733 361Q2738 361 2741 362Q2745 363 2750 363Q2754 363 2762 361Q2771 360 2779 359Q2788 359 2794 361Q2801 363 2801 371Q2812 373 2816 367Q2821 361 2826 361Q2831 361 2833 365Q2835 369 2839 371Q2843 371 2844 367Q2845 364 2852 364Q2858 364 2865 368Q2873 373 2881 363Q2888 361 2891 363Q2894 365 2900 366Q2907 354 2916 343Q2925 333 2930 320Q2927 320 2923 317Q2919 314 2916 309Q2913 305 2911 301Q2909 297 2910 294Q2904 289 2897 284Q2891 280 2883 280Q2875 280 2873 283Q2872 286 2867 286Q2862 286 2858 284Q2855 283 2851 283Q2846 283 2840 284Q2835 286 2829 286Q2822 286 2815 283Q2809 281 2802 281Q2797 281 2793 283Q2790 285 2786 286Q2779 287 2773 287Q2767 288 2760 288Q2755 288 2751 285Q2748 283 2743 283Q2738 283 2732 284Q2727 286 2722 286Q2718 286 2715 285Q2712 284 2709 284Q2691 282 2680 280Q2669 279 2658 276Q2659 265 2659 254Q2660 243 2665 233Q2665 230 2662 229Q2660 228 2660 223Q2668 213 2669 201Q2671 190 2670 178Q2669 166 2668 154Q2667 142 2672 130Q2669 122 2667 115Q2666 109 2667 101Q2674 91 2685 91Q2690 91 2694 91Q2698 92 2703 92Q2707 92 2710 91Q2713 90 2717 90Q2729 90 2741 91Q2753 93 2765 93Q2769 93 2772 92Q2776 92 2780 92Q2787 92 2793 93Q2800 95 2807 95Q2812 95 2816 93Q2820 92 2825 92Q2834 92 2842 95Q2851 98 2860 98Q2862 98 2865 97Q2868 97 2870 97Q2875 97 2877 101Q2879 106 2881 107Q2886 108 2891 109Q2896 110 2901 111Q2905 112 2907 108Q2910 105 2911 102Q2920 101 2925 96Q2931 91 2939 90Q2941 85 2944 81Q2947 78 2952 78Q2950 70 2954 61Q2948 59 2943 54Q2939 49 2934 47Q2935 41 2936 35Q2937 30 2936 23Q2934 21 2930 21Q2927 22 2924 22Q2917 22 2915 17Q2914 13 2909 13Q2906 15 2901 15Q2896 15 2891 15Q2886 15 2881 15Q2877 15 2874 17Q2868 17 2864 14Q2860 12 2856 8Q2846 12 2837 9Q2829 6 2821 1Q2817 5 2813 5Q2810 5 2805 4Q2805 7 2802 9Q2800 12 2799 15Q2782 12 2765 13Q2748 15 2731 10Q2722 15 2709 15Q2697 15 2688 8Q2680 12 2671 8Q2662 5 2653 5Q2640 8 2637 5Q2635 3 2632 3Q2627 3 2622 3Q2618 3 2613 5Q2608 12 2604 12Q2601 12 2597 14Q2596 22 2588 29Q2580 36 2575 41Q2578 43 2581 44Q2585 46 2585 50Q2578 60 2577 64Q2577 68 2577 72Q2578 77 2577 81Q2577 86 2573 89Q2583 92 2583 96Q2583 110 2579 122Q2575 134 2575 148Q2583 156 2582 159Q2582 163 2582 173Q2582 184 2583 193Q2585 203 2576 211Q2578 221 2576 230Q2575 240 2575 250Q2575 262 2577 273Q2580 285 2580 297Q2580 304 2577 307Q2575 310 2575 313Q2578 326 2576 329Q2574 333 2573 338Q2571 353 2572 369Q2574 385 2574 401Q2574 412 2570 426Q2567 440 2569 446Q2567 449 2566 453Q2565 457 2561 459Q2567 467 2560 473Q2554 480 2554 488Q2554 497 2557 503Q2561 509 2557 519Q2566 523 2577 526Q2582 531 2583 534Q2584 538 2594 538Q2611 538 2627 535Q2643 533 2660 530Q2664 531 2667 531Q2670 532 2673 534Q2681 530 2688 530Q2695 531 2701 533Q2708 535 2714 537Q2721 540 2728 540Q2736 540 2743 538Q2750 537 2758 537Q2784 537 2810 540Q2837 544 2863 542Q2872 537 2870 533Q2874 535 2877 536Q2881 537 2886 537Q2898 537 2913 536Q2929 536 2940 533Q2946 527 2950 526Q2955 524 2959 522Q2963 521 2968 519Q2972 517 2975 515Q2979 514 2983 512Q2990 502 2985 497Q2981 493 2986 487ZM3500 471Q3499 461 3504 458Q3510 456 3510 448Q3510 447 3503 442Q3496 437 3494 435Q3481 438 3471 432Q3462 426 3457 423Q3451 427 3445 425Q3439 423 3433 423Q3423 423 3414 426Q3406 430 3397 430Q3394 430 3391 429Q3388 428 3384 428Q3369 436 3360 433Q3351 430 3344 438Q3336 434 3327 433Q3319 433 3313 428Q3305 431 3297 429Q3289 428 3281 431Q3274 425 3277 422Q3281 419 3281 414Q3278 411 3277 407Q3277 404 3277 400Q3278 397 3277 393Q3276 389 3272 386Q3276 381 3277 375Q3279 369 3280 363Q3281 357 3282 351Q3283 346 3288 342Q3283 332 3286 322Q3290 312 3294 303Q3297 295 3296 287Q3296 280 3301 273Q3296 264 3298 258Q3300 253 3303 247Q3306 242 3308 237Q3311 232 3313 231Q3312 225 3310 216Q3309 208 3311 203Q3310 192 3311 186Q3312 181 3314 175Q3316 170 3317 164Q3319 159 3316 150Q3317 146 3318 142Q3319 138 3323 136Q3323 133 3320 131Q3317 130 3316 125Q3321 112 3328 102Q3326 91 3328 86Q3330 81 3331 71Q3328 66 3324 61Q3320 57 3316 52Q3317 35 3315 20Q3314 6 3293 4Q3286 3 3286 -6Q3279 -5 3275 -8Q3271 -11 3266 -11Q3262 -5 3259 -6Q3256 -7 3251 -7Q3247 -7 3240 1Q3233 9 3225 11Q3228 17 3226 20Q3225 24 3223 27Q3222 30 3222 33Q3222 36 3227 40Q3222 54 3224 68Q3227 83 3222 97Q3231 106 3229 120Q3227 134 3227 145Q3227 149 3228 152Q3229 156 3229 161Q3229 169 3225 174Q3221 180 3219 187Q3221 207 3219 225Q3218 243 3207 260Q3206 265 3207 267Q3209 270 3209 275Q3207 279 3206 283Q3205 288 3200 290Q3204 302 3203 310Q3203 318 3200 324Q3198 331 3195 336Q3192 342 3192 348Q3192 351 3193 354Q3195 357 3195 360Q3195 364 3192 367Q3189 371 3189 374Q3192 388 3189 393Q3187 398 3187 403Q3187 407 3187 410Q3188 413 3188 416Q3188 424 3181 430Q3175 436 3167 436Q3158 436 3149 433Q3141 430 3132 430Q3118 430 3104 431Q3091 432 3077 430Q3071 429 3065 426Q3059 423 3053 423Q3047 423 3041 426Q3036 430 3030 430Q3025 442 3015 449Q3005 456 2996 464Q2992 477 2997 483Q3002 489 3006 500Q3012 504 3018 508Q3025 512 3029 518Q3035 515 3042 514Q3049 513 3055 509Q3060 510 3064 512Q3069 514 3074 514Q3079 514 3083 511Q3087 509 3092 509Q3097 509 3102 512Q3107 515 3112 517Q3117 512 3123 512Q3130 513 3136 514Q3143 515 3149 515Q3155 516 3159 511Q3164 513 3167 516Q3171 519 3175 522Q3186 520 3196 514Q3207 509 3219 509Q3223 509 3226 510Q3229 512 3233 512Q3239 512 3245 510Q3251 509 3256 508Q3262 507 3267 508Q3273 509 3279 514Q3284 511 3288 508Q3293 505 3298 502Q3315 505 3333 503Q3351 501 3368 509Q3373 508 3377 507Q3381 507 3385 504Q3394 510 3404 509Q3414 508 3421 514Q3429 518 3432 517Q3435 517 3438 517Q3453 524 3459 522Q3466 521 3471 526Q3480 522 3485 518Q3491 514 3502 514Q3504 509 3509 501Q3514 494 3514 489Q3514 481 3509 478Q3504 476 3500 471ZM4106 71Q4105 66 4097 63Q4089 61 4084 56Q4084 50 4081 47Q4078 45 4079 37Q4074 35 4069 28Q4064 21 4059 21Q4052 21 4047 24Q4043 28 4034 26Q4026 41 4012 47Q4005 60 3998 72Q3991 84 3985 97Q3970 110 3961 114Q3952 119 3944 117Q3937 116 3928 110Q3920 104 3905 95Q3895 95 3877 95Q3860 95 3852 99Q3849 100 3846 101Q3844 103 3841 103Q3837 103 3833 101Q3830 100 3826 100Q3822 100 3819 101Q3816 102 3812 103Q3808 103 3805 102Q3803 102 3800 103Q3794 100 3791 97Q3789 95 3785 95Q3771 100 3755 102Q3740 104 3726 112Q3718 114 3717 109Q3716 105 3711 105Q3700 106 3691 104Q3682 103 3671 103Q3666 103 3660 104Q3655 105 3650 105Q3644 105 3639 102Q3634 100 3629 100Q3625 100 3622 101Q3619 103 3614 103Q3609 103 3605 100Q3602 98 3598 98Q3593 98 3589 98Q3585 99 3581 99Q3572 99 3568 95Q3564 92 3562 86Q3561 81 3560 75Q3559 70 3554 66Q3556 51 3553 42Q3550 33 3541 21Q3528 20 3516 17Q3504 15 3491 15Q3483 15 3480 20Q3477 25 3472 30Q3465 36 3461 42Q3458 48 3453 56Q3454 60 3457 62Q3461 65 3464 67Q3462 73 3463 77Q3465 81 3468 85Q3471 89 3473 93Q3476 98 3476 103Q3476 109 3476 111Q3477 113 3478 114Q3479 115 3480 116Q3481 117 3483 121Q3485 125 3484 128Q3483 132 3485 136Q3489 145 3494 152Q3500 160 3505 168Q3507 173 3508 177Q3510 181 3512 185Q3515 193 3523 200L3523 213Q3526 217 3528 220Q3530 223 3535 225Q3534 237 3541 245Q3548 254 3550 265Q3564 273 3573 287Q3583 302 3580 319Q3588 322 3592 330Q3596 338 3604 341Q3604 349 3606 355Q3609 361 3609 369Q3618 374 3621 382Q3625 391 3629 399Q3630 401 3633 406Q3636 412 3639 418Q3642 424 3644 428Q3647 433 3647 435Q3665 465 3668 491Q3674 497 3676 499Q3679 502 3680 504Q3681 507 3681 510Q3681 514 3683 521Q3686 520 3688 523Q3691 527 3694 532Q3698 537 3703 541Q3709 546 3718 546Q3728 546 3737 544Q3746 542 3756 541Q3761 535 3766 530Q3772 525 3777 518L3777 506Q3785 496 3792 485Q3800 475 3812 470Q3811 459 3816 457Q3822 456 3829 451Q3828 442 3830 437Q3833 433 3836 427Q3840 422 3843 417Q3846 413 3847 411Q3852 402 3859 402Q3858 397 3862 395Q3866 394 3864 387Q3873 378 3886 373Q3886 366 3891 360Q3896 355 3901 352Q3902 347 3905 345Q3908 343 3911 341Q3916 338 3918 333Q3921 328 3926 326Q3927 317 3936 305Q3945 294 3955 282Q3965 271 3973 261Q3981 252 3980 247Q3988 242 3995 236Q4003 231 4013 227Q4013 219 4012 215Q4012 212 4013 209Q4014 207 4017 205Q4020 203 4027 198Q4026 193 4031 186Q4033 182 4034 177Q4035 173 4038 168Q4043 160 4051 155Q4060 151 4067 145Q4072 134 4075 123Q4078 112 4082 101Q4089 94 4097 91Q4098 86 4099 80Q4101 74 4106 71ZM3874 259Q3868 260 3865 263Q3862 267 3857 268Q3858 281 3852 282Q3846 283 3839 290Q3839 295 3835 296Q3831 298 3829 302Q3825 313 3824 314Q3823 316 3818 319Q3814 321 3814 324Q3814 327 3806 331Q3802 333 3798 334Q3794 335 3792 339Q3786 350 3777 362Q3769 375 3767 389Q3757 395 3752 403Q3748 411 3734 413Q3726 403 3723 391Q3720 380 3710 372L3710 359Q3705 353 3699 346Q3694 339 3695 331Q3687 329 3687 323Q3687 317 3683 312Q3681 309 3678 308Q3676 307 3676 302Q3671 292 3669 286Q3667 280 3664 275Q3653 270 3655 266Q3657 262 3654 255Q3650 248 3644 245Q3639 243 3641 232Q3630 222 3622 209Q3615 197 3617 182Q3627 183 3637 182Q3647 181 3657 181Q3668 181 3677 185Q3687 189 3698 189Q3711 189 3724 182Q3737 176 3749 182Q3754 180 3757 178Q3760 176 3765 174Q3798 168 3832 179Q3842 175 3847 174Q3850 176 3858 177Q3866 178 3874 179Q3883 180 3889 182Q3896 184 3895 187Q3902 191 3906 191Q3911 191 3911 202Q3911 208 3906 215Q3901 222 3894 229Q3887 237 3881 244Q3875 252 3874 259ZM4519 471Q4518 461 4523 458Q4529 456 4529 448Q4529 447 4522 442Q4515 437 4513 435Q4500 438 4490 432Q4481 426 4476 423Q4470 427 4464 425Q4458 423 4452 423Q4442 423 4433 426Q4425 430 4416 430Q4413 430 4410 429Q4407 428 4403 428Q4388 436 4379 433Q4370 430 4363 438Q4355 434 4346 433Q4338 433 4332 428Q4324 431 4316 429Q4308 428 4300 431Q4293 425 4296 422Q4300 419 4300 414Q4297 411 4296 407Q4296 404 4296 400Q4297 397 4296 393Q4295 389 4291 386Q4295 381 4296 375Q4298 369 4299 363Q4300 357 4301 351Q4302 346 4307 342Q4302 332 4305 322Q4309 312 4313 303Q4316 295 4315 287Q4315 280 4320 273Q4315 264 4317 258Q4319 253 4322 247Q4325 242 4327 237Q4330 232 4332 231Q4331 225 4329 216Q4328 208 4330 203Q4329 192 4330 186Q4331 181 4333 175Q4335 170 4336 164Q4338 159 4335 150Q4336 146 4337 142Q4338 138 4342 136Q4342 133 4339 131Q4336 130 4335 125Q4340 112 4347 102Q4345 91 4347 86Q4349 81 4350 71Q4347 66 4343 61Q4339 57 4335 52Q4336 35 4334 20Q4333 6 4312 4Q4305 3 4305 -6Q4298 -5 4294 -8Q4290 -11 4285 -11Q4281 -5 4278 -6Q4275 -7 4270 -7Q4266 -7 4259 1Q4252 9 4244 11Q4247 17 4245 20Q4244 24 4242 27Q4241 30 4241 33Q4241 36 4246 40Q4241 54 4243 68Q4246 83 4241 97Q4250 106 4248 120Q4246 134 4246 145Q4246 149 4247 152Q4248 156 4248 161Q4248 169 4244 174Q4240 180 4238 187Q4240 207 4238 225Q4237 243 4226 260Q4225 265 4226 267Q4228 270 4228 275Q4226 279 4225 283Q4224 288 4219 290Q4223 302 4222 310Q4222 318 4219 324Q4217 331 4214 336Q4211 342 4211 348Q4211 351 4212 354Q4214 357 4214 360Q4214 364 4211 367Q4208 371 4208 374Q4211 388 4208 393Q4206 398 4206 403Q4206 407 4206 410Q4207 413 4207 416Q4207 424 4200 430Q4194 436 4186 436Q4177 436 4168 433Q4160 430 4151 430Q4137 430 4123 431Q4110 432 4096 430Q4090 429 4084 426Q4078 423 4072 423Q4066 423 4060 426Q4055 430 4049 430Q4044 442 4034 449Q4024 456 4015 464Q4011 477 4016 483Q4021 489 4025 500Q4031 504 4037 508Q4044 512 4048 518Q4054 515 4061 514Q4068 513 4074 509Q4079 510 4083 512Q4088 514 4093 514Q4098 514 4102 511Q4106 509 4111 509Q4116 509 4121 512Q4126 515 4131 517Q4136 512 4142 512Q4149 513 4155 514Q4162 515 4168 515Q4174 516 4178 511Q4183 513 4186 516Q4190 519 4194 522Q4205 520 4215 514Q4226 509 4238 509Q4242 509 4245 510Q4248 512 4252 512Q4258 512 4264 510Q4270 509 4275 508Q4281 507 4286 508Q4292 509 4298 514Q4303 511 4307 508Q4312 505 4317 502Q4334 505 4352 503Q4370 501 4387 509Q4392 508 4396 507Q4400 507 4404 504Q4413 510 4423 509Q4433 508 4440 514Q4448 518 4451 517Q4454 517 4457 517Q4472 524 4478 522Q4485 521 4490 526Q4499 522 4504 518Q4510 514 4521 514Q4523 509 4528 501Q4533 494 4533 489Q4533 481 4528 478Q4523 476 4519 471ZM4699 49Q4697 46 4695 43Q4693 41 4692 38Q4686 36 4682 33Q4678 31 4671 31Q4658 18 4644 11Q4638 16 4630 17Q4623 19 4615 18Q4615 19 4612 22Q4609 26 4605 29Q4602 33 4599 36Q4596 40 4595 40Q4595 52 4592 64Q4590 76 4590 87Q4590 95 4593 103Q4596 111 4596 119Q4596 128 4595 137Q4595 146 4595 155Q4595 159 4596 162Q4597 165 4597 169Q4597 174 4594 178Q4592 183 4592 188Q4592 193 4593 197Q4595 201 4595 206Q4595 213 4590 218Q4591 223 4593 226Q4595 229 4597 234Q4590 254 4595 270Q4600 286 4600 306Q4600 310 4598 312Q4596 315 4595 319Q4600 326 4597 330Q4594 335 4592 340Q4595 343 4595 351Q4595 359 4595 363Q4596 368 4594 370Q4593 372 4592 377Q4597 383 4593 395Q4590 407 4590 415Q4590 419 4590 426Q4591 434 4591 442Q4591 450 4591 457Q4591 464 4590 468Q4588 471 4586 474Q4584 477 4584 481Q4584 486 4586 492Q4588 498 4587 503Q4592 506 4594 507Q4596 508 4602 506Q4604 513 4609 520Q4614 527 4622 527Q4626 527 4629 524Q4632 521 4635 519Q4638 517 4641 516Q4644 516 4647 521Q4653 519 4656 514Q4659 510 4667 509Q4669 502 4673 495Q4677 489 4677 482Q4677 477 4675 472Q4674 468 4674 463Q4674 460 4675 457Q4677 454 4677 450Q4677 444 4675 438Q4674 432 4674 425Q4674 419 4677 415Q4680 412 4680 407Q4680 399 4679 397Q4679 395 4684 388Q4685 383 4683 380Q4682 377 4682 374Q4682 369 4684 366Q4687 363 4687 360Q4687 357 4685 354Q4684 351 4684 348Q4684 323 4687 301Q4688 295 4690 289Q4692 284 4692 279Q4692 273 4690 267Q4689 262 4689 256Q4689 244 4690 232Q4692 221 4690 209Q4692 204 4692 199Q4692 195 4697 193Q4695 188 4692 186Q4690 184 4692 177Q4690 169 4694 165Q4698 161 4698 157Q4698 156 4695 154Q4692 153 4692 148Q4692 144 4694 141Q4697 139 4697 135Q4697 130 4696 125Q4695 120 4695 115Q4695 104 4698 92Q4701 80 4691 70Q4696 65 4695 59Q4694 53 4699 49ZM5251 509Q5246 497 5247 490Q5248 483 5249 475Q5247 473 5243 471Q5240 470 5237 469Q5237 458 5233 447Q5229 437 5229 426Q5225 424 5223 420Q5222 416 5220 412Q5219 408 5217 404Q5215 401 5210 400Q5210 396 5211 393Q5213 390 5213 386Q5213 379 5207 374Q5201 369 5202 361Q5200 357 5198 349Q5197 342 5197 337Q5192 333 5188 328Q5185 324 5185 316Q5181 316 5180 314Q5180 313 5179 311Q5179 310 5177 309Q5176 308 5171 309Q5174 302 5169 294Q5164 287 5159 282Q5157 279 5157 276Q5157 273 5156 270Q5150 262 5150 261Q5151 260 5153 256Q5147 254 5145 247Q5143 241 5143 236Q5139 234 5138 232Q5138 230 5133 229Q5133 218 5128 211Q5124 205 5120 195Q5118 188 5116 179Q5115 171 5108 166Q5106 160 5108 159Q5110 158 5110 154Q5105 152 5104 146Q5103 140 5103 135L5093 135Q5091 124 5092 114Q5093 104 5095 93L5085 93Q5080 91 5078 87Q5077 83 5075 79Q5074 75 5071 71Q5069 68 5063 68Q5063 65 5063 62Q5064 59 5064 56Q5062 43 5060 38Q5058 33 5058 24Q5053 19 5048 15Q5044 12 5043 3Q5034 1 5027 -6Q5020 -12 5013 -14Q5010 -15 5007 -14Q5004 -13 5001 -13Q4996 -13 4994 -15Q4992 -17 4988 -18Q4987 -16 4982 -9Q4978 -2 4973 6Q4968 15 4963 22Q4959 29 4958 30Q4960 35 4957 40Q4954 46 4952 51Q4952 55 4953 56Q4955 57 4954 62Q4949 64 4947 69Q4946 75 4941 77Q4944 92 4940 94Q4936 97 4934 101Q4932 105 4932 109Q4932 113 4931 118Q4929 129 4920 136Q4911 144 4909 153Q4910 164 4904 173Q4899 182 4897 185Q4897 188 4898 190Q4899 193 4900 195Q4894 200 4891 207Q4889 214 4887 220Q4885 227 4881 233Q4878 239 4870 243Q4872 255 4870 255Q4869 256 4860 262Q4860 279 4850 287Q4850 295 4848 303Q4846 311 4840 317Q4839 323 4840 331Q4841 339 4833 342Q4833 353 4828 360Q4823 367 4820 369Q4820 372 4818 379Q4816 387 4813 395Q4810 403 4806 410Q4803 417 4801 419Q4803 428 4798 435Q4793 442 4791 444Q4795 455 4789 465Q4784 475 4780 485Q4778 490 4774 492Q4771 494 4766 496Q4770 508 4767 523Q4765 539 4770 549Q4780 551 4789 555Q4799 559 4810 559Q4820 559 4827 555Q4835 551 4844 549Q4844 541 4848 537Q4853 534 4853 528Q4851 510 4855 506Q4860 503 4862 496Q4864 492 4863 488Q4863 485 4865 481Q4869 470 4874 466Q4880 462 4880 448Q4883 446 4884 442Q4885 438 4890 437Q4890 432 4890 428Q4890 424 4892 419L4897 409Q4897 404 4903 395Q4910 387 4912 382Q4915 375 4916 368Q4918 362 4923 356Q4929 348 4928 346Q4928 344 4933 342Q4939 333 4939 326Q4940 319 4949 312L4949 300Q4957 289 4961 276Q4966 263 4976 253Q4977 247 4977 239Q4977 232 4984 230Q4983 210 4999 194Q4998 183 5002 177Q5006 172 5014 167Q5021 171 5020 174Q5020 178 5017 184Q5022 185 5023 188Q5025 191 5026 194Q5027 198 5028 201Q5029 204 5034 205Q5034 214 5037 223Q5040 232 5041 241Q5052 251 5057 259Q5063 268 5068 275Q5073 283 5076 292Q5080 301 5081 313Q5087 323 5089 326Q5092 329 5091 335Q5099 345 5105 352Q5112 359 5113 373Q5117 375 5117 378Q5118 381 5120 384Q5122 386 5123 388Q5125 391 5127 394Q5132 402 5135 412Q5138 423 5140 432Q5141 435 5141 439Q5141 444 5143 446Q5145 452 5146 453Q5148 454 5148 462Q5148 470 5145 477Q5143 485 5143 493Q5143 498 5146 502Q5149 507 5148 512Q5159 518 5162 525Q5166 532 5170 537Q5173 542 5178 543Q5183 544 5186 549Q5190 553 5196 552Q5203 551 5206 551Q5210 551 5213 552Q5216 553 5219 554Q5227 547 5230 548Q5233 549 5235 547Q5237 541 5237 540Q5238 539 5243 536Q5244 527 5248 521Q5253 515 5251 509ZM5750 487Q5744 482 5737 472Q5731 462 5725 460Q5723 459 5720 459Q5717 460 5714 460Q5709 460 5707 458Q5705 456 5701 455Q5694 459 5687 460Q5680 461 5673 465Q5667 465 5664 462Q5661 459 5656 459Q5651 459 5646 461Q5642 463 5638 458Q5619 464 5599 466Q5580 469 5561 474Q5553 470 5545 470Q5538 471 5530 469Q5527 468 5524 466Q5521 465 5518 465Q5514 465 5511 466Q5508 467 5504 467Q5498 467 5492 464Q5486 462 5480 462Q5475 462 5472 464Q5469 467 5464 462Q5461 467 5457 464Q5454 462 5451 460Q5435 460 5429 461Q5424 463 5417 462Q5417 455 5417 442Q5417 429 5417 415Q5418 402 5418 390Q5418 379 5417 375Q5420 368 5427 368Q5435 368 5440 368Q5454 362 5468 361Q5483 361 5497 361Q5502 361 5505 362Q5509 363 5514 363Q5518 363 5526 361Q5535 360 5543 359Q5552 359 5558 361Q5565 363 5565 371Q5576 373 5580 367Q5585 361 5590 361Q5595 361 5597 365Q5599 369 5603 371Q5607 371 5608 367Q5609 364 5616 364Q5622 364 5629 368Q5637 373 5645 363Q5652 361 5655 363Q5658 365 5664 366Q5671 354 5680 343Q5689 333 5694 320Q5691 320 5687 317Q5683 314 5680 309Q5677 305 5675 301Q5673 297 5674 294Q5668 289 5661 284Q5655 280 5647 280Q5639 280 5637 283Q5636 286 5631 286Q5626 286 5622 284Q5619 283 5615 283Q5610 283 5604 284Q5599 286 5593 286Q5586 286 5579 283Q5573 281 5566 281Q5561 281 5557 283Q5554 285 5550 286Q5543 287 5537 287Q5531 288 5524 288Q5519 288 5515 285Q5512 283 5507 283Q5502 283 5496 284Q5491 286 5486 286Q5482 286 5479 285Q5476 284 5473 284Q5455 282 5444 280Q5433 279 5422 276Q5423 265 5423 254Q5424 243 5429 233Q5429 230 5426 229Q5424 228 5424 223Q5432 213 5433 201Q5435 190 5434 178Q5433 166 5432 154Q5431 142 5436 130Q5433 122 5431 115Q5430 109 5431 101Q5438 91 5449 91Q5454 91 5458 91Q5462 92 5467 92Q5471 92 5474 91Q5477 90 5481 90Q5493 90 5505 91Q5517 93 5529 93Q5533 93 5536 92Q5540 92 5544 92Q5551 92 5557 93Q5564 95 5571 95Q5576 95 5580 93Q5584 92 5589 92Q5598 92 5606 95Q5615 98 5624 98Q5626 98 5629 97Q5632 97 5634 97Q5639 97 5641 101Q5643 106 5645 107Q5650 108 5655 109Q5660 110 5665 111Q5669 112 5671 108Q5674 105 5675 102Q5684 101 5689 96Q5695 91 5703 90Q5705 85 5708 81Q5711 78 5716 78Q5714 70 5718 61Q5712 59 5707 54Q5703 49 5698 47Q5699 41 5700 35Q5701 30 5700 23Q5698 21 5694 21Q5691 22 5688 22Q5681 22 5679 17Q5678 13 5673 13Q5670 15 5665 15Q5660 15 5655 15Q5650 15 5645 15Q5641 15 5638 17Q5632 17 5628 14Q5624 12 5620 8Q5610 12 5601 9Q5593 6 5585 1Q5581 5 5577 5Q5574 5 5569 4Q5569 7 5566 9Q5564 12 5563 15Q5546 12 5529 13Q5512 15 5495 10Q5486 15 5473 15Q5461 15 5452 8Q5444 12 5435 8Q5426 5 5417 5Q5404 8 5401 5Q5399 3 5396 3Q5391 3 5386 3Q5382 3 5377 5Q5372 12 5368 12Q5365 12 5361 14Q5360 22 5352 29Q5344 36 5339 41Q5342 43 5345 44Q5349 46 5349 50Q5342 60 5341 64Q5341 68 5341 72Q5342 77 5341 81Q5341 86 5337 89Q5347 92 5347 96Q5347 110 5343 122Q5339 134 5339 148Q5347 156 5346 159Q5346 163 5346 173Q5346 184 5347 193Q5349 203 5340 211Q5342 221 5340 230Q5339 240 5339 250Q5339 262 5341 273Q5344 285 5344 297Q5344 304 5341 307Q5339 310 5339 313Q5342 326 5340 329Q5338 333 5337 338Q5335 353 5336 369Q5338 385 5338 401Q5338 412 5334 426Q5331 440 5333 446Q5331 449 5330 453Q5329 457 5325 459Q5331 467 5324 473Q5318 480 5318 488Q5318 497 5321 503Q5325 509 5321 519Q5330 523 5341 526Q5346 531 5347 534Q5348 538 5358 538Q5375 538 5391 535Q5407 533 5424 530Q5428 531 5431 531Q5434 532 5437 534Q5445 530 5452 530Q5459 531 5465 533Q5472 535 5478 537Q5485 540 5492 540Q5500 540 5507 538Q5514 537 5522 537Q5548 537 5574 540Q5601 544 5627 542Q5636 537 5634 533Q5638 535 5641 536Q5645 537 5650 537Q5662 537 5677 536Q5693 536 5704 533Q5710 527 5714 526Q5719 524 5723 522Q5727 521 5732 519Q5736 517 5739 515Q5743 514 5747 512Q5754 502 5749 497Q5745 493 5750 487Z" fill="#435e55" style=""></path></g></g><g transform="matrix(1,0,0,1,-30,1042.9857)"><g transform="matrix(1,0,0,-1,0,0)"><path d="M451 686Q455 688 463 688Q467 683 472 680Q477 678 483 675Q489 673 494 670Q500 668 501 667Q508 665 514 662Q521 660 525 653Q536 650 542 644Q548 639 562 637Q567 616 576 606Q585 597 597 581Q597 570 601 561Q606 552 606 541Q606 532 603 523Q601 514 601 505Q601 497 603 488Q606 480 606 472Q606 464 604 460Q608 453 607 451Q607 450 615 445Q612 440 610 437Q609 435 609 433Q609 431 609 428Q610 426 610 421Q610 415 608 412Q607 409 605 406Q604 403 602 398Q601 394 602 385Q595 381 594 377Q593 373 589 371Q591 365 591 361Q584 355 583 350Q583 345 578 339Q579 334 579 330Q579 327 581 322Q577 314 571 313Q570 308 562 306Q562 303 562 300Q562 298 563 296Q555 296 552 295Q550 294 548 292Q547 291 545 288Q544 286 540 283Q537 275 533 270Q530 265 521 269Q514 264 508 261Q502 259 496 251Q489 251 480 246Q472 242 462 237Q452 232 440 227Q428 223 415 223Q409 221 403 217Q398 214 392 219Q376 217 361 212Q346 207 329 207Q326 207 318 209Q315 204 313 201Q312 199 305 198Q291 200 287 199Q284 198 273 198Q269 198 265 198Q261 199 257 199Q251 199 245 196Q240 194 234 194Q224 191 216 191Q209 192 204 193Q195 189 190 190Q189 182 190 173Q191 165 193 157Q190 155 187 151Q185 148 183 145Q188 139 188 135Q188 131 188 126Q188 122 189 115Q191 109 198 100Q196 93 197 90Q199 87 199 83Q199 77 196 74Q194 72 192 68Q191 64 192 59Q193 55 193 51Q193 41 188 32Q183 24 180 16Q173 15 172 14Q172 13 167 11Q164 3 159 -2Q154 -7 151 -15Q146 -21 138 -21Q130 -20 122 -21Q120 -17 118 -13Q116 -8 113 -4Q108 -1 107 5Q99 10 99 13Q100 16 95 19Q96 26 95 33Q95 41 97 47Q91 54 91 62Q91 67 93 69Q95 71 97 76Q102 88 98 105Q95 123 103 137L99 147Q99 153 100 154Q102 156 104 161Q97 173 101 178Q101 186 98 189Q95 193 99 203Q99 208 98 212Q98 216 99 221Q92 224 89 224Q89 229 90 236Q92 243 99 245Q97 262 98 278Q100 295 100 312Q100 323 97 334Q95 345 95 352Q93 365 93 368Q93 372 94 375Q95 379 94 383Q94 387 89 395Q96 402 94 407Q92 412 94 420Q88 434 89 445Q91 457 91 471Q85 479 85 486Q85 493 85 502Q85 508 83 514Q81 520 81 527Q76 535 77 537Q76 541 77 544Q78 548 78 552Q78 559 75 566Q72 574 72 582Q72 584 73 587Q74 590 74 592Q74 599 71 604Q68 609 71 617Q66 627 63 633Q60 639 63 650Q61 656 61 660Q62 674 69 686Q76 698 90 703Q97 705 103 704Q110 703 117 707Q127 708 132 701Q145 704 149 703Q153 702 161 702Q164 702 166 704Q168 707 170 709Q175 707 179 705Q183 704 188 703Q207 711 227 716Q248 721 268 712Q273 713 276 714Q279 716 284 716Q295 710 312 710Q330 710 344 707Q353 706 355 705Q358 705 360 703Q363 702 365 701Q368 700 373 702Q376 700 379 698Q383 696 386 694Q389 695 392 694Q395 694 399 694Q402 694 405 695Q408 697 410 698Q414 699 419 699Q424 699 428 699Q432 702 440 696Q448 691 451 686ZM506 391L508 393Q507 401 512 405Q517 409 519 416Q515 424 517 437Q519 451 519 460Q518 465 515 470Q512 476 512 482Q505 505 513 520Q511 525 510 531Q510 537 509 542Q507 551 501 557Q495 563 492 571Q483 574 477 577Q472 581 466 584Q461 587 454 589Q447 591 436 590Q434 593 432 595Q430 598 428 600Q420 600 417 603Q414 606 409 607Q404 609 390 610Q377 612 374 612Q361 610 356 610Q351 610 339 615Q328 620 317 617Q309 625 302 627Q295 629 284 625Q277 631 270 630Q263 630 255 628Q253 630 250 631Q247 632 245 634Q235 623 219 628Q216 626 212 625Q209 624 206 623Q201 615 194 611Q188 605 181 608Q173 616 159 609Q159 603 161 598Q164 594 159 589Q165 575 162 572Q159 569 160 561Q164 555 165 549Q166 543 166 536Q167 530 168 523Q170 516 175 509Q169 499 173 491Q177 483 175 472Q180 465 180 459Q181 453 188 445Q184 443 178 439Q178 429 181 422Q185 416 179 406Q182 401 184 393Q187 386 185 381Q190 374 187 366Q188 353 190 343Q192 334 192 321Q199 313 196 302Q194 291 194 282Q205 283 210 283Q216 283 227 288L239 278Q243 283 249 283Q255 283 260 281Q264 284 267 285Q270 287 273 290Q282 288 289 290Q297 292 305 288Q313 291 319 292Q325 294 333 292Q338 295 341 298Q345 301 350 303Q352 298 353 297Q354 297 358 295Q360 297 362 298Q364 300 366 302Q375 302 382 306Q390 310 398 308Q402 310 405 311Q408 313 411 317Q421 311 426 314Q432 317 443 317Q445 317 451 321Q458 326 463 327Q466 332 470 335Q474 338 479 341Q481 348 484 352Q487 356 490 360Q493 364 495 369Q498 374 498 383L506 391ZM1274 51Q1270 37 1273 21Q1268 13 1259 7Q1251 1 1243 -4Q1233 -3 1223 0Q1214 4 1204 6Q1201 13 1195 17Q1190 21 1187 27Q1184 32 1183 41Q1183 50 1182 59Q1181 68 1178 75Q1176 82 1170 84Q1171 94 1160 108Q1149 122 1144 132Q1136 137 1130 144Q1124 152 1119 160Q1109 158 1106 163Q1104 168 1097 166Q1097 169 1095 171Q1094 174 1093 176Q1084 184 1074 190Q1065 196 1057 204Q1052 204 1047 202Q1043 201 1040 207Q1035 207 1031 204Q1028 202 1025 202Q1022 202 1019 203Q1017 204 1014 204Q1003 204 991 203Q980 203 969 199Q967 201 964 204Q961 207 959 207Q957 207 946 201Q936 196 928 195Q914 193 895 192Q876 191 866 178Q861 180 855 179Q849 179 848 172Q842 173 839 174Q837 176 831 174Q826 164 831 156Q836 148 838 139Q839 131 839 115Q839 99 847 94Q844 87 843 80Q842 73 842 65Q842 62 843 59Q845 57 845 53Q845 48 842 44Q840 41 841 36Q834 34 833 27Q832 21 832 16Q824 16 818 13Q813 11 807 8Q802 5 796 4Q790 3 782 6Q773 19 758 30Q759 34 757 38Q756 43 751 43Q752 54 749 59Q746 64 741 73Q741 79 744 84Q747 90 749 95Q747 105 746 116Q745 127 739 135Q739 139 740 141Q741 144 741 147Q741 154 738 162Q735 170 733 178Q731 186 730 193Q730 200 735 204Q727 212 726 218Q726 225 724 235Q722 240 720 243Q718 247 716 252Q714 262 715 272Q717 283 712 293Q711 295 710 297Q709 300 709 303Q709 308 710 312Q711 316 711 321Q711 342 710 363Q709 384 709 405Q709 409 709 412Q710 415 710 418Q710 423 707 428Q711 439 707 449Q703 460 697 470Q699 475 698 481Q698 487 698 492Q698 503 703 506Q709 509 709 517Q721 518 728 532Q735 532 739 535Q744 539 750 541Q756 535 765 535Q772 535 778 537Q784 540 791 541Q800 543 809 542Q818 541 828 541Q833 541 837 542Q842 544 847 544Q850 544 853 542Q856 541 860 541Q874 541 887 545Q901 549 914 541Q922 543 926 544Q931 546 939 541Q944 543 948 543Q952 544 957 546Q964 546 970 543Q976 541 983 541Q988 541 992 542Q996 544 1001 544Q1012 544 1021 540Q1031 536 1043 539Q1051 533 1062 525Q1074 518 1084 528Q1087 526 1089 524Q1092 522 1093 517Q1100 515 1102 517Q1105 519 1110 519Q1115 514 1117 514Q1119 514 1126 514Q1135 509 1137 509Q1140 504 1144 503Q1149 502 1150 497Q1167 495 1176 487Q1186 479 1192 464Q1194 459 1204 459Q1203 443 1209 437Q1216 432 1229 426Q1228 418 1227 410Q1227 403 1227 395Q1229 379 1223 372Q1217 366 1219 354Q1216 353 1209 353Q1209 346 1212 342Q1196 336 1187 322Q1178 308 1165 300L1165 290Q1163 288 1160 288Q1157 289 1155 289Q1155 283 1152 278Q1149 273 1149 268Q1142 264 1135 263Q1136 257 1139 250Q1143 244 1150 242Q1152 240 1153 237Q1154 234 1156 232Q1158 230 1160 229Q1163 229 1165 227Q1170 223 1172 218Q1175 213 1180 210Q1189 203 1199 198Q1209 194 1217 183Q1221 171 1227 164Q1233 158 1240 150Q1247 143 1254 136Q1261 130 1264 128Q1264 122 1263 120Q1263 119 1269 115Q1270 109 1269 99Q1269 90 1268 80Q1268 70 1269 62Q1270 54 1274 51ZM1119 418Q1114 418 1108 419Q1103 421 1097 420Q1097 421 1093 424Q1089 427 1084 430Q1079 434 1074 437Q1070 440 1069 440Q1065 441 1061 440Q1057 440 1053 440Q1044 440 1038 445Q1032 450 1024 452Q1022 453 1019 452Q1016 452 1014 452Q1010 452 1007 454Q1004 457 1000 457Q996 457 993 456Q990 455 986 455Q981 455 975 458Q970 461 964 458Q956 466 944 465Q933 465 922 467Q917 468 911 470Q905 472 900 472Q896 472 893 469Q890 467 887 467Q884 467 881 468Q878 470 875 470Q861 470 849 464Q838 459 822 465Q810 454 793 444Q794 417 793 390Q792 386 791 382Q790 378 790 374Q790 371 793 368Q796 366 798 364Q793 359 792 354Q792 349 793 343Q794 338 796 333Q798 328 798 323Q795 320 794 311Q794 302 796 291Q798 281 801 271Q805 262 810 258Q821 265 831 263Q842 261 853 266Q857 268 860 269Q864 271 868 271Q874 271 879 269Q885 268 891 268Q899 268 907 268Q915 269 923 269Q934 277 946 277Q959 277 972 279Q984 281 994 285Q1004 290 1018 288Q1027 298 1030 303Q1033 308 1038 311Q1044 309 1047 310Q1050 311 1052 312Q1055 314 1059 315Q1063 316 1070 315Q1073 325 1082 327Q1091 330 1095 340Q1100 341 1103 341Q1106 341 1108 345Q1113 360 1118 365Q1124 370 1127 374Q1130 379 1129 387Q1128 395 1119 418ZM1496 18L1491 23Q1482 22 1474 24Q1466 27 1457 28Q1455 32 1451 36Q1447 41 1442 43Q1426 50 1423 59Q1420 68 1406 70Q1406 76 1404 78Q1402 81 1399 83Q1397 85 1394 86Q1391 88 1388 92Q1385 103 1381 114Q1377 125 1366 131Q1366 142 1365 145Q1364 149 1362 149Q1361 150 1359 150Q1358 151 1356 156Q1357 167 1351 173Q1346 180 1344 183Q1344 187 1344 190Q1345 194 1347 198Q1341 200 1339 204Q1338 209 1337 214Q1336 219 1335 224Q1334 229 1329 232Q1331 245 1331 258Q1332 272 1324 283Q1333 295 1333 309Q1334 324 1339 338Q1339 343 1336 347Q1334 352 1332 357Q1340 359 1339 368Q1339 377 1339 384Q1343 392 1347 398Q1351 404 1354 409Q1357 415 1359 421Q1361 428 1361 438Q1369 443 1375 450Q1381 457 1387 464Q1393 472 1399 478Q1405 485 1413 490Q1416 495 1419 497Q1423 500 1425 507Q1435 510 1443 516Q1452 522 1460 527Q1474 536 1491 542Q1509 549 1526 551Q1529 554 1533 556Q1537 558 1541 561Q1546 562 1550 561Q1555 561 1558 561Q1561 562 1564 564Q1567 566 1569 573L1575 561Q1582 560 1586 559Q1590 559 1595 566Q1607 563 1619 562Q1631 561 1643 559Q1653 550 1654 547Q1656 545 1658 541Q1666 540 1671 535Q1676 531 1685 531Q1688 523 1694 521Q1701 520 1703 512Q1710 511 1717 507Q1723 495 1733 488Q1744 481 1749 468Q1755 465 1758 460Q1762 456 1765 451Q1769 447 1772 442Q1776 438 1782 436Q1782 431 1780 428Q1778 426 1779 423Q1785 421 1786 416Q1788 411 1789 406Q1791 401 1793 396Q1796 392 1803 391Q1803 382 1804 377Q1805 373 1808 365Q1813 355 1813 345Q1814 336 1816 325Q1816 322 1818 320Q1821 318 1823 316Q1821 308 1823 300Q1825 292 1825 284Q1825 279 1822 277Q1819 276 1819 274Q1820 272 1824 269Q1829 267 1831 265Q1824 263 1822 257Q1821 252 1821 245Q1821 239 1821 232Q1822 225 1821 220Q1820 216 1818 214Q1816 212 1816 208Q1818 197 1816 195Q1814 193 1813 190Q1812 185 1812 181Q1813 177 1813 172Q1813 164 1809 159Q1806 154 1801 148Q1800 143 1802 141Q1805 139 1803 134Q1795 121 1788 108Q1781 96 1774 82Q1769 74 1762 70Q1756 66 1752 55Q1742 53 1731 46Q1721 40 1711 33Q1702 26 1695 20Q1688 14 1687 14Q1680 13 1677 10Q1674 8 1666 8Q1661 9 1659 3Q1657 -3 1648 -5Q1635 -10 1631 -10Q1627 -10 1622 -4Q1615 -4 1609 -7Q1603 -9 1596 -9Q1590 -9 1584 -7Q1578 -4 1572 -4Q1567 -3 1563 -4Q1559 -4 1554 -4Q1549 -4 1541 -2Q1533 1 1528 3Q1517 9 1511 13Q1505 18 1496 18ZM1735 367Q1726 371 1723 376Q1721 382 1718 389Q1716 396 1714 402Q1713 408 1713 411Q1709 417 1704 420Q1699 423 1694 426Q1690 430 1686 434Q1682 438 1681 446Q1673 448 1667 453Q1662 458 1654 460Q1654 465 1652 465Q1650 466 1649 470Q1635 472 1626 477Q1618 482 1607 487Q1602 482 1598 483Q1595 485 1590 485Q1586 485 1582 481Q1578 477 1573 475Q1570 480 1564 480Q1558 481 1553 483Q1549 480 1542 477Q1536 475 1531 473Q1512 465 1496 446Q1484 436 1475 430Q1467 425 1457 421Q1456 412 1451 405Q1446 398 1445 389Q1434 385 1428 371Q1422 357 1420 347Q1426 338 1428 327Q1430 316 1435 306Q1430 301 1426 297Q1422 293 1419 287Q1410 284 1410 272Q1411 261 1415 247Q1419 234 1424 222Q1430 210 1433 207Q1431 204 1429 201Q1427 198 1428 195Q1439 183 1442 163Q1446 159 1450 156Q1454 154 1457 151Q1461 149 1462 145Q1464 141 1464 133Q1469 133 1471 131Q1474 129 1476 126Q1478 124 1480 121Q1482 119 1487 119L1496 109Q1501 106 1505 106Q1509 107 1511 99Q1527 95 1542 89Q1557 83 1572 77Q1580 80 1588 79Q1596 78 1604 80Q1609 80 1611 83Q1614 87 1619 87Q1622 87 1623 83Q1625 80 1632 82Q1634 87 1638 86Q1643 85 1646 87Q1652 90 1654 96Q1657 102 1666 102Q1675 116 1688 126Q1701 137 1710 151L1720 151Q1723 165 1728 180Q1734 196 1732 210Q1737 227 1739 242Q1742 257 1742 271Q1742 276 1739 280Q1737 285 1737 290Q1737 295 1738 300Q1740 305 1740 310Q1740 324 1738 338Q1737 353 1735 367ZM2388 96Q2392 74 2383 60Q2374 47 2367 29Q2361 31 2358 26Q2356 22 2354 18Q2350 15 2345 15Q2341 16 2337 11Q2335 15 2334 18Q2333 21 2328 21Q2311 21 2287 17Q2263 14 2250 1Q2239 2 2231 -2Q2223 -5 2213 -11Q2210 -12 2209 -9Q2208 -5 2201 -7Q2194 -12 2184 -11Q2175 -9 2167 -9Q2156 -9 2145 -13Q2134 -17 2123 -17Q2115 -17 2108 -14Q2102 -11 2095 -6Q2087 -11 2082 -8Q2077 -4 2070 -4Q2057 -7 2052 -2Q2048 4 2039 2Q2036 7 2031 10Q2027 14 2022 18L2007 18Q1995 27 1981 33Q1968 39 1960 53Q1957 55 1953 56Q1950 58 1947 60Q1946 63 1944 64Q1943 66 1944 70Q1943 75 1935 79Q1931 81 1929 84Q1928 88 1923 88Q1921 98 1919 111Q1917 124 1907 129Q1907 134 1906 139Q1906 144 1900 145Q1903 158 1895 170Q1897 175 1898 181Q1899 188 1894 193Q1893 197 1895 199Q1898 201 1899 204Q1897 212 1894 220Q1891 229 1891 238Q1891 241 1891 243Q1892 246 1892 248Q1887 261 1890 265Q1894 270 1894 273Q1894 279 1893 284Q1892 290 1892 295Q1892 303 1897 311Q1902 319 1897 326Q1902 338 1901 343Q1901 348 1899 351Q1901 356 1904 358Q1908 361 1911 364Q1915 375 1920 386Q1925 398 1934 406L1934 422Q1940 424 1942 429Q1944 435 1944 440Q1954 447 1959 455Q1964 464 1971 473Q1978 482 1984 489Q1991 497 1995 500Q1997 505 1999 509Q2002 513 2005 517Q2009 521 2015 521Q2022 521 2023 529Q2036 531 2040 536Q2045 541 2050 541Q2055 541 2059 538Q2063 536 2068 543Q2074 539 2079 542Q2085 545 2090 548Q2096 543 2106 547Q2117 551 2125 551Q2128 551 2133 553Q2138 556 2141 558Q2145 553 2150 558Q2155 563 2158 565Q2167 561 2174 563Q2181 565 2190 563Q2198 561 2199 562Q2200 563 2201 563Q2208 562 2213 558Q2219 555 2226 554Q2236 552 2245 552Q2255 552 2265 551Q2267 548 2268 544Q2269 541 2273 539Q2277 537 2278 536Q2279 535 2282 532Q2287 526 2289 526Q2292 526 2291 516Q2299 518 2300 515Q2301 513 2306 513Q2307 509 2309 506Q2311 503 2313 499Q2309 490 2308 480Q2308 470 2304 461Q2299 458 2296 458Q2294 458 2287 452Q2280 449 2278 450Q2276 451 2274 452Q2264 449 2263 450Q2263 452 2261 454Q2258 458 2254 458Q2250 458 2246 459Q2242 459 2239 461Q2236 463 2232 464Q2223 472 2216 475Q2210 479 2202 479Q2200 479 2197 478Q2194 478 2191 478Q2173 479 2160 477Q2148 476 2135 479Q2122 476 2118 464Q2111 462 2102 462Q2094 462 2086 460Q2079 459 2073 455Q2067 451 2064 443Q2059 444 2057 442Q2056 440 2053 438Q2047 437 2045 434Q2043 431 2042 428Q2042 426 2040 424Q2039 422 2033 423Q2033 417 2029 407Q2025 397 2032 395Q2027 394 2027 391Q2027 389 2021 391Q2020 381 2014 379Q2008 377 2007 369Q2002 354 2000 350Q1999 347 1996 339Q1994 334 1994 330Q1995 326 1993 322Q1988 320 1988 318Q1989 316 1989 312Q1980 301 1983 294Q1986 287 1977 278Q1983 274 1983 269Q1983 264 1982 259Q1981 255 1981 250Q1981 245 1982 241Q1983 238 1983 234Q1983 231 1982 228Q1981 225 1981 222Q1981 217 1983 213Q1986 209 1986 204Q1983 191 1986 188Q1989 186 1989 183Q1995 171 1999 164Q2004 157 2006 146Q2014 139 2018 130Q2022 121 2033 118Q2033 115 2034 112Q2035 110 2036 108Q2043 106 2047 102Q2052 99 2057 95Q2066 87 2074 88Q2082 89 2092 85Q2094 82 2101 80Q2108 78 2116 77Q2124 76 2132 75Q2140 75 2144 75Q2152 75 2157 82Q2163 78 2170 80Q2175 80 2176 82Q2177 85 2180 87Q2188 83 2194 88Q2200 93 2203 93Q2206 93 2206 90Q2207 88 2214 88Q2219 88 2220 91Q2222 95 2225 97Q2228 97 2233 96Q2239 95 2245 94Q2251 94 2256 95Q2261 96 2264 99Q2267 97 2271 97Q2275 98 2279 100Q2283 103 2287 105Q2291 107 2294 108Q2294 114 2291 117Q2289 120 2289 123Q2289 128 2293 133Q2297 138 2297 145Q2297 150 2294 154Q2291 158 2291 162Q2291 166 2292 170Q2293 174 2293 178Q2293 188 2289 197Q2286 206 2286 215Q2286 217 2288 219Q2291 222 2291 224Q2288 230 2285 233Q2282 237 2274 235Q2273 239 2271 239Q2270 240 2272 245Q2263 251 2255 251Q2247 251 2237 251Q2232 251 2226 252Q2221 254 2216 254Q2211 254 2207 251Q2204 249 2201 249Q2184 251 2173 246Q2163 241 2155 239Q2147 244 2139 242Q2131 241 2122 241Q2117 241 2114 243Q2111 246 2106 246Q2094 247 2089 242Q2081 245 2073 250Q2066 255 2058 258Q2058 264 2055 269Q2053 275 2051 280Q2049 285 2048 291Q2048 297 2050 304Q2055 306 2064 311Q2073 316 2073 321Q2083 329 2095 327Q2108 325 2120 325Q2125 325 2130 326Q2136 328 2141 328Q2155 328 2173 325Q2191 323 2205 328Q2217 335 2222 333Q2227 332 2232 337Q2243 332 2252 337Q2262 342 2270 350Q2272 350 2274 345Q2276 340 2278 338Q2284 340 2290 337Q2297 334 2302 338Q2305 338 2308 334Q2311 330 2315 328Q2324 324 2334 325Q2344 327 2352 323Q2357 321 2358 316Q2360 312 2366 313L2369 289Q2371 283 2373 276Q2375 270 2376 264Q2376 260 2374 257Q2372 255 2370 251Q2372 243 2376 240Q2381 238 2386 233Q2386 228 2382 225Q2379 223 2378 218Q2382 214 2382 207Q2383 200 2383 191Q2384 183 2385 175Q2386 168 2390 162Q2387 153 2388 144Q2390 136 2391 127Q2393 119 2393 111Q2393 103 2388 96ZM3042 51Q3038 37 3041 21Q3036 13 3027 7Q3019 1 3011 -4Q3001 -3 2991 0Q2982 4 2972 6Q2969 13 2963 17Q2958 21 2955 27Q2952 32 2951 41Q2951 50 2950 59Q2949 68 2946 75Q2944 82 2938 84Q2939 94 2928 108Q2917 122 2912 132Q2904 137 2898 144Q2892 152 2887 160Q2877 158 2874 163Q2872 168 2865 166Q2865 169 2863 171Q2862 174 2861 176Q2852 184 2842 190Q2833 196 2825 204Q2820 204 2815 202Q2811 201 2808 207Q2803 207 2799 204Q2796 202 2793 202Q2790 202 2787 203Q2785 204 2782 204Q2771 204 2759 203Q2748 203 2737 199Q2735 201 2732 204Q2729 207 2727 207Q2725 207 2714 201Q2704 196 2696 195Q2682 193 2663 192Q2644 191 2634 178Q2629 180 2623 179Q2617 179 2616 172Q2610 173 2607 174Q2605 176 2599 174Q2594 164 2599 156Q2604 148 2606 139Q2607 131 2607 115Q2607 99 2615 94Q2612 87 2611 80Q2610 73 2610 65Q2610 62 2611 59Q2613 57 2613 53Q2613 48 2610 44Q2608 41 2609 36Q2602 34 2601 27Q2600 21 2600 16Q2592 16 2586 13Q2581 11 2575 8Q2570 5 2564 4Q2558 3 2550 6Q2541 19 2526 30Q2527 34 2525 38Q2524 43 2519 43Q2520 54 2517 59Q2514 64 2509 73Q2509 79 2512 84Q2515 90 2517 95Q2515 105 2514 116Q2513 127 2507 135Q2507 139 2508 141Q2509 144 2509 147Q2509 154 2506 162Q2503 170 2501 178Q2499 186 2498 193Q2498 200 2503 204Q2495 212 2494 218Q2494 225 2492 235Q2490 240 2488 243Q2486 247 2484 252Q2482 262 2483 272Q2485 283 2480 293Q2479 295 2478 297Q2477 300 2477 303Q2477 308 2478 312Q2479 316 2479 321Q2479 342 2478 363Q2477 384 2477 405Q2477 409 2477 412Q2478 415 2478 418Q2478 423 2475 428Q2479 439 2475 449Q2471 460 2465 470Q2467 475 2466 481Q2466 487 2466 492Q2466 503 2471 506Q2477 509 2477 517Q2489 518 2496 532Q2503 532 2507 535Q2512 539 2518 541Q2524 535 2533 535Q2540 535 2546 537Q2552 540 2559 541Q2568 543 2577 542Q2586 541 2596 541Q2601 541 2605 542Q2610 544 2615 544Q2618 544 2621 542Q2624 541 2628 541Q2642 541 2655 545Q2669 549 2682 541Q2690 543 2694 544Q2699 546 2707 541Q2712 543 2716 543Q2720 544 2725 546Q2732 546 2738 543Q2744 541 2751 541Q2756 541 2760 542Q2764 544 2769 544Q2780 544 2789 540Q2799 536 2811 539Q2819 533 2830 525Q2842 518 2852 528Q2855 526 2857 524Q2860 522 2861 517Q2868 515 2870 517Q2873 519 2878 519Q2883 514 2885 514Q2887 514 2894 514Q2903 509 2905 509Q2908 504 2912 503Q2917 502 2918 497Q2935 495 2944 487Q2954 479 2960 464Q2962 459 2972 459Q2971 443 2977 437Q2984 432 2997 426Q2996 418 2995 410Q2995 403 2995 395Q2997 379 2991 372Q2985 366 2987 354Q2984 353 2977 353Q2977 346 2980 342Q2964 336 2955 322Q2946 308 2933 300L2933 290Q2931 288 2928 288Q2925 289 2923 289Q2923 283 2920 278Q2917 273 2917 268Q2910 264 2903 263Q2904 257 2907 250Q2911 244 2918 242Q2920 240 2921 237Q2922 234 2924 232Q2926 230 2928 229Q2931 229 2933 227Q2938 223 2940 218Q2943 213 2948 210Q2957 203 2967 198Q2977 194 2985 183Q2989 171 2995 164Q3001 158 3008 150Q3015 143 3022 136Q3029 130 3032 128Q3032 122 3031 120Q3031 119 3037 115Q3038 109 3037 99Q3037 90 3036 80Q3036 70 3037 62Q3038 54 3042 51ZM2887 418Q2882 418 2876 419Q2871 421 2865 420Q2865 421 2861 424Q2857 427 2852 430Q2847 434 2842 437Q2838 440 2837 440Q2833 441 2829 440Q2825 440 2821 440Q2812 440 2806 445Q2800 450 2792 452Q2790 453 2787 452Q2784 452 2782 452Q2778 452 2775 454Q2772 457 2768 457Q2764 457 2761 456Q2758 455 2754 455Q2749 455 2743 458Q2738 461 2732 458Q2724 466 2712 465Q2701 465 2690 467Q2685 468 2679 470Q2673 472 2668 472Q2664 472 2661 469Q2658 467 2655 467Q2652 467 2649 468Q2646 470 2643 470Q2629 470 2617 464Q2606 459 2590 465Q2578 454 2561 444Q2562 417 2561 390Q2560 386 2559 382Q2558 378 2558 374Q2558 371 2561 368Q2564 366 2566 364Q2561 359 2560 354Q2560 349 2561 343Q2562 338 2564 333Q2566 328 2566 323Q2563 320 2562 311Q2562 302 2564 291Q2566 281 2569 271Q2573 262 2578 258Q2589 265 2599 263Q2610 261 2621 266Q2625 268 2628 269Q2632 271 2636 271Q2642 271 2647 269Q2653 268 2659 268Q2667 268 2675 268Q2683 269 2691 269Q2702 277 2714 277Q2727 277 2740 279Q2752 281 2762 285Q2772 290 2786 288Q2795 298 2798 303Q2801 308 2806 311Q2812 309 2815 310Q2818 311 2820 312Q2823 314 2827 315Q2831 316 2838 315Q2841 325 2850 327Q2859 330 2863 340Q2868 341 2871 341Q2874 341 2876 345Q2881 360 2886 365Q2892 370 2895 374Q2898 379 2897 387Q2896 395 2887 418ZM3735 71Q3734 66 3726 63Q3718 61 3713 56Q3713 50 3710 47Q3707 45 3708 37Q3703 35 3698 28Q3693 21 3688 21Q3681 21 3676 24Q3672 28 3663 26Q3655 41 3641 47Q3634 60 3627 72Q3620 84 3614 97Q3599 110 3590 114Q3581 119 3573 117Q3566 116 3557 110Q3549 104 3534 95Q3524 95 3506 95Q3489 95 3481 99Q3478 100 3475 101Q3473 103 3470 103Q3466 103 3462 101Q3459 100 3455 100Q3451 100 3448 101Q3445 102 3441 103Q3437 103 3434 102Q3432 102 3429 103Q3423 100 3420 97Q3418 95 3414 95Q3400 100 3384 102Q3369 104 3355 112Q3347 114 3346 109Q3345 105 3340 105Q3329 106 3320 104Q3311 103 3300 103Q3295 103 3289 104Q3284 105 3279 105Q3273 105 3268 102Q3263 100 3258 100Q3254 100 3251 101Q3248 103 3243 103Q3238 103 3234 100Q3231 98 3227 98Q3222 98 3218 98Q3214 99 3210 99Q3201 99 3197 95Q3193 92 3191 86Q3190 81 3189 75Q3188 70 3183 66Q3185 51 3182 42Q3179 33 3170 21Q3157 20 3145 17Q3133 15 3120 15Q3112 15 3109 20Q3106 25 3101 30Q3094 36 3090 42Q3087 48 3082 56Q3083 60 3086 62Q3090 65 3093 67Q3091 73 3092 77Q3094 81 3097 85Q3100 89 3102 93Q3105 98 3105 103Q3105 109 3105 111Q3106 113 3107 114Q3108 115 3109 116Q3110 117 3112 121Q3114 125 3113 128Q3112 132 3114 136Q3118 145 3123 152Q3129 160 3134 168Q3136 173 3137 177Q3139 181 3141 185Q3144 193 3152 200L3152 213Q3155 217 3157 220Q3159 223 3164 225Q3163 237 3170 245Q3177 254 3179 265Q3193 273 3202 287Q3212 302 3209 319Q3217 322 3221 330Q3225 338 3233 341Q3233 349 3235 355Q3238 361 3238 369Q3247 374 3250 382Q3254 391 3258 399Q3259 401 3262 406Q3265 412 3268 418Q3271 424 3273 428Q3276 433 3276 435Q3294 465 3297 491Q3303 497 3305 499Q3308 502 3309 504Q3310 507 3310 510Q3310 514 3312 521Q3315 520 3317 523Q3320 527 3323 532Q3327 537 3332 541Q3338 546 3347 546Q3357 546 3366 544Q3375 542 3385 541Q3390 535 3395 530Q3401 525 3406 518L3406 506Q3414 496 3421 485Q3429 475 3441 470Q3440 459 3445 457Q3451 456 3458 451Q3457 442 3459 437Q3462 433 3465 427Q3469 422 3472 417Q3475 413 3476 411Q3481 402 3488 402Q3487 397 3491 395Q3495 394 3493 387Q3502 378 3515 373Q3515 366 3520 360Q3525 355 3530 352Q3531 347 3534 345Q3537 343 3540 341Q3545 338 3547 333Q3550 328 3555 326Q3556 317 3565 305Q3574 294 3584 282Q3594 271 3602 261Q3610 252 3609 247Q3617 242 3624 236Q3632 231 3642 227Q3642 219 3641 215Q3641 212 3642 209Q3643 207 3646 205Q3649 203 3656 198Q3655 193 3660 186Q3662 182 3663 177Q3664 173 3667 168Q3672 160 3680 155Q3689 151 3696 145Q3701 134 3704 123Q3707 112 3711 101Q3718 94 3726 91Q3727 86 3728 80Q3730 74 3735 71ZM3503 259Q3497 260 3494 263Q3491 267 3486 268Q3487 281 3481 282Q3475 283 3468 290Q3468 295 3464 296Q3460 298 3458 302Q3454 313 3453 314Q3452 316 3447 319Q3443 321 3443 324Q3443 327 3435 331Q3431 333 3427 334Q3423 335 3421 339Q3415 350 3406 362Q3398 375 3396 389Q3386 395 3381 403Q3377 411 3363 413Q3355 403 3352 391Q3349 380 3339 372L3339 359Q3334 353 3328 346Q3323 339 3324 331Q3316 329 3316 323Q3316 317 3312 312Q3310 309 3307 308Q3305 307 3305 302Q3300 292 3298 286Q3296 280 3293 275Q3282 270 3284 266Q3286 262 3283 255Q3279 248 3273 245Q3268 243 3270 232Q3259 222 3251 209Q3244 197 3246 182Q3256 183 3266 182Q3276 181 3286 181Q3297 181 3306 185Q3316 189 3327 189Q3340 189 3353 182Q3366 176 3378 182Q3383 180 3386 178Q3389 176 3394 174Q3427 168 3461 179Q3471 175 3476 174Q3479 176 3487 177Q3495 178 3503 179Q3512 180 3518 182Q3525 184 3524 187Q3531 191 3535 191Q3540 191 3540 202Q3540 208 3535 215Q3530 222 3523 229Q3516 237 3510 244Q3504 252 3503 259ZM4491 28Q4490 25 4487 23Q4484 21 4482 19Q4480 17 4479 14Q4478 11 4481 7Q4479 2 4468 1Q4457 1 4451 -6Q4447 -8 4443 -7Q4440 -5 4436 -8Q4427 -3 4420 4Q4414 12 4403 15Q4402 22 4397 26Q4392 30 4392 36Q4393 49 4390 50Q4387 52 4385 57Q4383 60 4383 63Q4383 67 4379 68Q4381 73 4383 78Q4386 83 4388 88Q4383 99 4375 109Q4367 119 4367 132Q4367 137 4367 141Q4368 145 4368 150Q4368 154 4366 157Q4365 160 4368 164Q4366 170 4363 175Q4361 181 4359 187Q4362 188 4363 194Q4364 201 4363 208Q4362 216 4361 223Q4360 231 4360 234Q4360 238 4361 242Q4362 246 4362 250Q4366 267 4362 279Q4358 291 4358 300Q4358 314 4359 327Q4360 340 4351 354Q4336 347 4333 333L4322 333Q4319 330 4319 328Q4319 327 4320 323Q4316 322 4315 319Q4314 316 4313 313Q4312 310 4308 304Q4304 299 4299 293Q4295 287 4290 281Q4286 275 4284 272Q4283 266 4281 260Q4280 255 4281 249L4269 249Q4266 238 4266 228Q4255 206 4250 193Q4245 180 4234 168Q4236 162 4234 160Q4232 158 4232 153Q4224 145 4219 139Q4214 133 4212 122Q4207 120 4205 116Q4204 113 4202 109Q4201 106 4198 103Q4196 100 4190 99Q4195 92 4194 86Q4194 81 4197 75Q4197 71 4193 70Q4189 70 4187 64Q4185 59 4185 54Q4186 49 4185 44Q4183 39 4182 38Q4182 38 4181 37Q4180 36 4180 33Q4180 31 4180 23Q4172 21 4175 13Q4170 15 4169 11Q4168 8 4169 4Q4164 5 4159 4Q4154 4 4151 -1Q4147 2 4142 0Q4138 -1 4133 -1Q4127 5 4121 4Q4115 3 4107 3Q4102 14 4095 21Q4088 28 4086 42Q4081 47 4078 53Q4076 59 4071 64Q4071 75 4067 85Q4063 96 4053 102Q4052 111 4048 118Q4044 126 4039 133Q4039 140 4036 145Q4034 151 4031 155Q4028 160 4025 165Q4022 170 4021 176Q4017 178 4014 181Q4012 185 4007 187Q4006 192 4004 195Q4003 199 4001 203Q3990 213 3984 226Q3978 239 3967 248Q3968 251 3966 253Q3965 255 3964 258Q3948 271 3939 289Q3931 308 3918 317Q3908 329 3903 336Q3899 343 3891 348Q3883 349 3883 345Q3883 341 3885 336Q3885 333 3884 330Q3883 327 3883 324Q3883 321 3884 318Q3885 316 3885 313Q3885 296 3882 279Q3880 263 3880 246Q3880 244 3881 241Q3882 238 3882 235Q3882 231 3880 228Q3879 225 3879 220Q3879 211 3880 201Q3882 192 3883 183Q3887 181 3888 178Q3890 175 3892 172Q3891 165 3891 158Q3892 151 3895 145Q3893 141 3891 138Q3889 135 3893 131Q3893 126 3896 124Q3899 122 3902 120Q3905 119 3907 117Q3910 115 3910 110Q3910 104 3905 100Q3901 97 3897 93Q3904 77 3905 61Q3902 59 3899 57Q3896 56 3894 52Q3884 41 3886 39Q3889 38 3888 35Q3877 30 3869 21Q3861 13 3849 11Q3842 17 3836 20Q3831 23 3821 21Q3817 24 3816 27Q3815 31 3809 31Q3809 39 3805 42Q3802 45 3799 51Q3801 61 3798 70Q3796 80 3796 90Q3796 100 3797 109Q3799 119 3799 129Q3799 134 3797 138Q3796 142 3796 147Q3796 150 3797 153Q3799 156 3799 159Q3799 162 3797 164Q3795 167 3794 170Q3792 176 3791 182Q3791 188 3791 194Q3791 199 3793 203Q3796 207 3796 212Q3796 221 3794 230Q3793 240 3793 250Q3793 257 3796 261Q3799 266 3799 271Q3799 279 3797 287Q3796 295 3794 303Q3796 319 3796 323Q3796 328 3797 330Q3799 333 3800 335Q3802 337 3802 342Q3802 347 3800 352Q3799 358 3799 363Q3799 375 3801 386Q3804 398 3804 410Q3804 415 3802 418Q3800 421 3799 425Q3802 427 3801 431Q3800 436 3800 439Q3802 452 3799 452Q3796 453 3794 455Q3796 465 3800 470Q3804 476 3805 490Q3805 497 3804 504Q3804 512 3808 519Q3817 521 3820 528Q3823 536 3825 544Q3832 543 3837 550Q3841 549 3846 550Q3852 552 3859 553Q3866 554 3875 552Q3884 551 3895 545L3895 533Q3904 526 3906 513Q3909 501 3913 491Q3915 486 3919 477Q3924 468 3929 459Q3935 450 3941 442Q3947 435 3952 433Q3952 428 3954 423Q3957 419 3957 414Q3960 410 3962 405Q3964 401 3969 398Q3969 388 3974 383Q3980 378 3982 369Q3985 367 3988 366Q3992 366 3995 364Q3999 354 4007 348Q4015 342 4022 334Q4029 325 4035 315Q4041 306 4051 300Q4051 292 4053 285Q4056 279 4064 277Q4062 270 4067 267Q4073 265 4076 260Q4074 253 4077 254Q4080 255 4080 250Q4088 242 4088 238Q4089 235 4091 233Q4095 228 4098 223Q4101 219 4104 214Q4108 210 4111 205Q4114 201 4115 201Q4113 189 4118 181Q4123 173 4130 171Q4137 170 4143 177Q4150 185 4152 205Q4163 210 4164 220Q4165 230 4167 240Q4172 244 4174 249Q4177 254 4182 257Q4184 262 4183 263Q4182 264 4180 268Q4184 269 4184 272Q4185 276 4185 279Q4191 280 4190 284Q4190 288 4198 289Q4196 297 4198 299Q4200 302 4200 309Q4204 311 4203 312Q4203 314 4210 312Q4209 315 4209 320Q4210 325 4207 327Q4209 329 4213 328Q4217 328 4219 328Q4220 339 4226 345Q4233 352 4234 363Q4250 371 4255 380Q4260 390 4269 396Q4268 402 4269 405Q4271 409 4273 411Q4275 414 4277 417Q4279 420 4279 425Q4287 427 4289 434Q4291 442 4299 446Q4297 452 4301 464Q4305 477 4313 477Q4314 491 4320 499Q4326 507 4328 519Q4334 519 4340 522Q4342 530 4348 533Q4354 537 4357 544Q4374 546 4381 552Q4388 559 4398 554Q4402 549 4403 547Q4404 545 4402 539L4415 539Q4417 534 4417 531Q4418 529 4417 524Q4419 520 4422 518Q4426 516 4427 514Q4425 503 4428 491Q4431 479 4426 468Q4433 466 4431 458Q4430 450 4436 446Q4434 443 4433 440Q4432 438 4431 435Q4436 434 4436 432Q4436 431 4435 428Q4435 426 4435 422Q4436 418 4442 411Q4442 409 4439 408Q4437 407 4437 402Q4439 400 4440 397Q4442 394 4444 392Q4439 381 4443 375Q4447 369 4447 362Q4444 348 4446 344Q4449 340 4441 337Q4444 327 4446 316Q4449 306 4449 295Q4449 290 4448 284Q4447 279 4447 274Q4447 269 4449 266Q4452 263 4452 261Q4452 258 4450 257Q4448 256 4450 251Q4450 240 4446 231Q4443 223 4451 214Q4448 207 4450 200Q4452 193 4452 185Q4455 183 4456 180Q4458 178 4460 176Q4456 170 4459 165Q4462 160 4462 154Q4459 152 4459 146Q4460 141 4462 135Q4465 129 4468 123Q4471 117 4472 114Q4471 100 4477 97Q4478 93 4478 89Q4478 85 4483 83Q4481 76 4484 72Q4487 68 4491 63Q4492 46 4489 40Q4486 35 4491 28ZM5283 28Q5282 25 5279 23Q5276 21 5274 19Q5272 17 5271 14Q5270 11 5273 7Q5271 2 5260 1Q5249 1 5243 -6Q5239 -8 5235 -7Q5232 -5 5228 -8Q5219 -3 5212 4Q5206 12 5195 15Q5194 22 5189 26Q5184 30 5184 36Q5185 49 5182 50Q5179 52 5177 57Q5175 60 5175 63Q5175 67 5171 68Q5173 73 5175 78Q5178 83 5180 88Q5175 99 5167 109Q5159 119 5159 132Q5159 137 5159 141Q5160 145 5160 150Q5160 154 5158 157Q5157 160 5160 164Q5158 170 5155 175Q5153 181 5151 187Q5154 188 5155 194Q5156 201 5155 208Q5154 216 5153 223Q5152 231 5152 234Q5152 238 5153 242Q5154 246 5154 250Q5158 267 5154 279Q5150 291 5150 300Q5150 314 5151 327Q5152 340 5143 354Q5128 347 5125 333L5114 333Q5111 330 5111 328Q5111 327 5112 323Q5108 322 5107 319Q5106 316 5105 313Q5104 310 5100 304Q5096 299 5091 293Q5087 287 5082 281Q5078 275 5076 272Q5075 266 5073 260Q5072 255 5073 249L5061 249Q5058 238 5058 228Q5047 206 5042 193Q5037 180 5026 168Q5028 162 5026 160Q5024 158 5024 153Q5016 145 5011 139Q5006 133 5004 122Q4999 120 4997 116Q4996 113 4994 109Q4993 106 4990 103Q4988 100 4982 99Q4987 92 4986 86Q4986 81 4989 75Q4989 71 4985 70Q4981 70 4979 64Q4977 59 4977 54Q4978 49 4977 44Q4975 39 4974 38Q4974 38 4973 37Q4972 36 4972 33Q4972 31 4972 23Q4964 21 4967 13Q4962 15 4961 11Q4960 8 4961 4Q4956 5 4951 4Q4946 4 4943 -1Q4939 2 4934 0Q4930 -1 4925 -1Q4919 5 4913 4Q4907 3 4899 3Q4894 14 4887 21Q4880 28 4878 42Q4873 47 4870 53Q4868 59 4863 64Q4863 75 4859 85Q4855 96 4845 102Q4844 111 4840 118Q4836 126 4831 133Q4831 140 4828 145Q4826 151 4823 155Q4820 160 4817 165Q4814 170 4813 176Q4809 178 4806 181Q4804 185 4799 187Q4798 192 4796 195Q4795 199 4793 203Q4782 213 4776 226Q4770 239 4759 248Q4760 251 4758 253Q4757 255 4756 258Q4740 271 4731 289Q4723 308 4710 317Q4700 329 4695 336Q4691 343 4683 348Q4675 349 4675 345Q4675 341 4677 336Q4677 333 4676 330Q4675 327 4675 324Q4675 321 4676 318Q4677 316 4677 313Q4677 296 4674 279Q4672 263 4672 246Q4672 244 4673 241Q4674 238 4674 235Q4674 231 4672 228Q4671 225 4671 220Q4671 211 4672 201Q4674 192 4675 183Q4679 181 4680 178Q4682 175 4684 172Q4683 165 4683 158Q4684 151 4687 145Q4685 141 4683 138Q4681 135 4685 131Q4685 126 4688 124Q4691 122 4694 120Q4697 119 4699 117Q4702 115 4702 110Q4702 104 4697 100Q4693 97 4689 93Q4696 77 4697 61Q4694 59 4691 57Q4688 56 4686 52Q4676 41 4678 39Q4681 38 4680 35Q4669 30 4661 21Q4653 13 4641 11Q4634 17 4628 20Q4623 23 4613 21Q4609 24 4608 27Q4607 31 4601 31Q4601 39 4597 42Q4594 45 4591 51Q4593 61 4590 70Q4588 80 4588 90Q4588 100 4589 109Q4591 119 4591 129Q4591 134 4589 138Q4588 142 4588 147Q4588 150 4589 153Q4591 156 4591 159Q4591 162 4589 164Q4587 167 4586 170Q4584 176 4583 182Q4583 188 4583 194Q4583 199 4585 203Q4588 207 4588 212Q4588 221 4586 230Q4585 240 4585 250Q4585 257 4588 261Q4591 266 4591 271Q4591 279 4589 287Q4588 295 4586 303Q4588 319 4588 323Q4588 328 4589 330Q4591 333 4592 335Q4594 337 4594 342Q4594 347 4592 352Q4591 358 4591 363Q4591 375 4593 386Q4596 398 4596 410Q4596 415 4594 418Q4592 421 4591 425Q4594 427 4593 431Q4592 436 4592 439Q4594 452 4591 452Q4588 453 4586 455Q4588 465 4592 470Q4596 476 4597 490Q4597 497 4596 504Q4596 512 4600 519Q4609 521 4612 528Q4615 536 4617 544Q4624 543 4629 550Q4633 549 4638 550Q4644 552 4651 553Q4658 554 4667 552Q4676 551 4687 545L4687 533Q4696 526 4698 513Q4701 501 4705 491Q4707 486 4711 477Q4716 468 4721 459Q4727 450 4733 442Q4739 435 4744 433Q4744 428 4746 423Q4749 419 4749 414Q4752 410 4754 405Q4756 401 4761 398Q4761 388 4766 383Q4772 378 4774 369Q4777 367 4780 366Q4784 366 4787 364Q4791 354 4799 348Q4807 342 4814 334Q4821 325 4827 315Q4833 306 4843 300Q4843 292 4845 285Q4848 279 4856 277Q4854 270 4859 267Q4865 265 4868 260Q4866 253 4869 254Q4872 255 4872 250Q4880 242 4880 238Q4881 235 4883 233Q4887 228 4890 223Q4893 219 4896 214Q4900 210 4903 205Q4906 201 4907 201Q4905 189 4910 181Q4915 173 4922 171Q4929 170 4935 177Q4942 185 4944 205Q4955 210 4956 220Q4957 230 4959 240Q4964 244 4966 249Q4969 254 4974 257Q4976 262 4975 263Q4974 264 4972 268Q4976 269 4976 272Q4977 276 4977 279Q4983 280 4982 284Q4982 288 4990 289Q4988 297 4990 299Q4992 302 4992 309Q4996 311 4995 312Q4995 314 5002 312Q5001 315 5001 320Q5002 325 4999 327Q5001 329 5005 328Q5009 328 5011 328Q5012 339 5018 345Q5025 352 5026 363Q5042 371 5047 380Q5052 390 5061 396Q5060 402 5061 405Q5063 409 5065 411Q5067 414 5069 417Q5071 420 5071 425Q5079 427 5081 434Q5083 442 5091 446Q5089 452 5093 464Q5097 477 5105 477Q5106 491 5112 499Q5118 507 5120 519Q5126 519 5132 522Q5134 530 5140 533Q5146 537 5149 544Q5166 546 5173 552Q5180 559 5190 554Q5194 549 5195 547Q5196 545 5194 539L5207 539Q5209 534 5209 531Q5210 529 5209 524Q5211 520 5214 518Q5218 516 5219 514Q5217 503 5220 491Q5223 479 5218 468Q5225 466 5223 458Q5222 450 5228 446Q5226 443 5225 440Q5224 438 5223 435Q5228 434 5228 432Q5228 431 5227 428Q5227 426 5227 422Q5228 418 5234 411Q5234 409 5231 408Q5229 407 5229 402Q5231 400 5232 397Q5234 394 5236 392Q5231 381 5235 375Q5239 369 5239 362Q5236 348 5238 344Q5241 340 5233 337Q5236 327 5238 316Q5241 306 5241 295Q5241 290 5240 284Q5239 279 5239 274Q5239 269 5241 266Q5244 263 5244 261Q5244 258 5242 257Q5240 256 5242 251Q5242 240 5238 231Q5235 223 5243 214Q5240 207 5242 200Q5244 193 5244 185Q5247 183 5248 180Q5250 178 5252 176Q5248 170 5251 165Q5254 160 5254 154Q5251 152 5251 146Q5252 141 5254 135Q5257 129 5260 123Q5263 117 5264 114Q5263 100 5269 97Q5270 93 5270 89Q5270 85 5275 83Q5273 76 5276 72Q5279 68 5283 63Q5284 46 5281 40Q5278 35 5283 28ZM5495 49Q5493 46 5491 43Q5489 41 5488 38Q5482 36 5478 33Q5474 31 5467 31Q5454 18 5440 11Q5434 16 5426 17Q5419 19 5411 18Q5411 19 5408 22Q5405 26 5401 29Q5398 33 5395 36Q5392 40 5391 40Q5391 52 5388 64Q5386 76 5386 87Q5386 95 5389 103Q5392 111 5392 119Q5392 128 5391 137Q5391 146 5391 155Q5391 159 5392 162Q5393 165 5393 169Q5393 174 5390 178Q5388 183 5388 188Q5388 193 5389 197Q5391 201 5391 206Q5391 213 5386 218Q5387 223 5389 226Q5391 229 5393 234Q5386 254 5391 270Q5396 286 5396 306Q5396 310 5394 312Q5392 315 5391 319Q5396 326 5393 330Q5390 335 5388 340Q5391 343 5391 351Q5391 359 5391 363Q5392 368 5390 370Q5389 372 5388 377Q5393 383 5389 395Q5386 407 5386 415Q5386 419 5386 426Q5387 434 5387 442Q5387 450 5387 457Q5387 464 5386 468Q5384 471 5382 474Q5380 477 5380 481Q5380 486 5382 492Q5384 498 5383 503Q5388 506 5390 507Q5392 508 5398 506Q5400 513 5405 520Q5410 527 5418 527Q5422 527 5425 524Q5428 521 5431 519Q5434 517 5437 516Q5440 516 5443 521Q5449 519 5452 514Q5455 510 5463 509Q5465 502 5469 495Q5473 489 5473 482Q5473 477 5471 472Q5470 468 5470 463Q5470 460 5471 457Q5473 454 5473 450Q5473 444 5471 438Q5470 432 5470 425Q5470 419 5473 415Q5476 412 5476 407Q5476 399 5475 397Q5475 395 5480 388Q5481 383 5479 380Q5478 377 5478 374Q5478 369 5480 366Q5483 363 5483 360Q5483 357 5481 354Q5480 351 5480 348Q5480 323 5483 301Q5484 295 5486 289Q5488 284 5488 279Q5488 273 5486 267Q5485 262 5485 256Q5485 244 5486 232Q5488 221 5486 209Q5488 204 5488 199Q5488 195 5493 193Q5491 188 5488 186Q5486 184 5488 177Q5486 169 5490 165Q5494 161 5494 157Q5494 156 5491 154Q5488 153 5488 148Q5488 144 5490 141Q5493 139 5493 135Q5493 130 5492 125Q5491 120 5491 115Q5491 104 5494 92Q5497 80 5487 70Q5492 65 5491 59Q5490 53 5495 49ZM6099 463L6105 463Q6097 461 6096 454Q6096 448 6096 440Q6096 433 6097 426Q6098 420 6100 418Q6092 412 6094 407Q6097 403 6099 396Q6093 386 6095 371Q6097 357 6097 346Q6097 342 6095 338Q6094 335 6094 331Q6094 325 6096 319Q6099 313 6099 306Q6099 296 6096 288Q6094 280 6097 269Q6089 260 6090 248Q6092 237 6092 226Q6092 221 6090 216Q6088 212 6087 207Q6085 199 6087 192Q6089 185 6084 177Q6089 169 6089 160Q6089 151 6089 143Q6089 135 6092 125Q6096 116 6094 109Q6100 106 6100 98Q6100 88 6097 88Q6094 89 6089 83Q6092 78 6093 74Q6095 70 6097 65Q6097 59 6092 51Q6088 44 6093 39Q6083 32 6080 20Q6076 18 6071 14Q6067 10 6063 10Q6059 10 6055 11Q6052 13 6048 13Q6038 13 6029 9Q6021 5 6010 6Q5994 8 5989 12Q5984 16 5979 21Q5974 26 5969 31Q5964 36 5958 38Q5957 41 5951 47Q5946 54 5939 60Q5933 66 5926 71Q5919 76 5916 77Q5908 85 5907 89Q5906 93 5899 93Q5900 100 5897 104Q5895 109 5892 113Q5889 118 5885 122Q5882 126 5881 132Q5871 134 5868 142Q5865 150 5854 150Q5852 157 5847 159Q5842 162 5837 164Q5836 169 5834 169Q5832 170 5834 176Q5823 184 5813 193Q5803 203 5791 211Q5789 219 5784 225Q5780 232 5772 236Q5772 240 5768 247Q5764 255 5759 263Q5754 271 5749 278Q5744 285 5741 288Q5736 293 5736 295Q5737 298 5730 303Q5725 306 5726 308Q5727 311 5724 315Q5722 320 5717 323Q5713 327 5709 331Q5704 332 5702 330Q5700 329 5699 327Q5698 325 5697 323Q5696 321 5692 321Q5693 316 5694 312Q5696 308 5696 303Q5696 298 5693 292Q5690 286 5696 284Q5692 276 5691 266Q5691 257 5696 249Q5690 248 5689 244Q5688 240 5689 234Q5691 229 5693 223Q5695 218 5695 215Q5695 210 5693 205Q5692 201 5692 196Q5692 186 5697 176Q5702 166 5708 158Q5713 152 5714 145Q5716 138 5719 132Q5715 124 5718 116Q5721 108 5722 99Q5724 96 5726 93Q5729 91 5731 87Q5726 85 5726 80Q5727 75 5725 71Q5725 64 5727 59Q5729 54 5729 49Q5730 45 5727 41Q5725 37 5717 32Q5718 20 5715 16Q5712 12 5706 3Q5698 2 5692 1Q5687 1 5681 6Q5673 6 5673 -2Q5664 3 5654 7Q5644 12 5636 17Q5636 27 5635 36Q5635 45 5635 55L5635 73Q5635 78 5633 80Q5631 83 5628 86Q5630 95 5630 108Q5631 122 5623 129Q5622 144 5621 159Q5621 174 5618 189Q5627 200 5622 214Q5618 229 5618 242Q5618 245 5619 248Q5621 251 5621 254Q5621 270 5618 285Q5616 300 5616 316Q5616 323 5618 330Q5621 337 5621 345Q5621 354 5620 363Q5619 373 5617 382Q5616 385 5614 390Q5613 396 5613 398Q5613 403 5614 406Q5616 410 5618 415Q5611 441 5609 468Q5608 495 5608 521Q5612 525 5617 529Q5622 534 5627 538Q5633 543 5637 547Q5642 551 5643 551Q5646 552 5651 551Q5657 551 5662 549Q5668 548 5673 546Q5678 545 5679 543Q5681 540 5682 537Q5684 534 5686 532Q5689 529 5693 528Q5698 528 5703 520Q5706 515 5706 513Q5706 512 5707 511Q5708 510 5710 509Q5712 508 5718 505Q5726 494 5731 479Q5737 465 5743 450Q5749 436 5756 422Q5764 409 5777 399Q5777 385 5791 376Q5791 365 5795 363Q5799 361 5804 354Q5807 341 5815 332Q5824 324 5832 314Q5834 311 5835 308Q5836 305 5841 304Q5840 298 5843 296Q5847 295 5846 290Q5858 281 5858 275Q5859 269 5869 269Q5867 265 5870 262Q5873 259 5877 256Q5882 253 5887 249Q5892 245 5894 239L5906 239Q5908 228 5917 223Q5926 218 5929 207Q5934 205 5938 201Q5943 197 5948 195Q5949 187 5953 182Q5958 177 5965 173Q5964 165 5970 157Q5976 150 5982 147Q5987 148 5986 143Q5986 139 5994 137Q6010 153 6001 176Q6006 181 6005 191Q6005 201 6005 207Q6005 216 6007 225Q6009 235 6009 244Q6009 251 6006 259Q6007 261 6009 268Q6011 275 6012 283Q6014 291 6015 298Q6016 305 6016 307Q6016 312 6013 314Q6011 316 6010 320Q6013 323 6015 326Q6018 329 6020 332Q6021 341 6017 342Q6013 343 6013 347Q6013 355 6015 363Q6018 371 6018 379Q6018 383 6016 386Q6015 390 6015 394Q6015 401 6017 407Q6020 413 6020 419Q6020 424 6017 433Q6015 443 6010 445Q6012 460 6013 475Q6014 490 6003 503Q6002 514 6001 524Q6001 535 6009 544Q6016 546 6022 548Q6029 551 6032 559Q6043 559 6053 559Q6064 560 6075 557Q6082 545 6088 534Q6094 523 6089 509Q6091 504 6094 498Q6097 492 6097 486Q6097 482 6095 479Q6094 476 6094 473Q6094 468 6095 467Q6097 466 6099 463ZM6698 96Q6702 74 6693 60Q6684 47 6677 29Q6671 31 6668 26Q6666 22 6664 18Q6660 15 6655 15Q6651 16 6647 11Q6645 15 6644 18Q6643 21 6638 21Q6621 21 6597 17Q6573 14 6560 1Q6549 2 6541 -2Q6533 -5 6523 -11Q6520 -12 6519 -9Q6518 -5 6511 -7Q6504 -12 6494 -11Q6485 -9 6477 -9Q6466 -9 6455 -13Q6444 -17 6433 -17Q6425 -17 6418 -14Q6412 -11 6405 -6Q6397 -11 6392 -8Q6387 -4 6380 -4Q6367 -7 6362 -2Q6358 4 6349 2Q6346 7 6341 10Q6337 14 6332 18L6317 18Q6305 27 6291 33Q6278 39 6270 53Q6267 55 6263 56Q6260 58 6257 60Q6256 63 6254 64Q6253 66 6254 70Q6253 75 6245 79Q6241 81 6239 84Q6238 88 6233 88Q6231 98 6229 111Q6227 124 6217 129Q6217 134 6216 139Q6216 144 6210 145Q6213 158 6205 170Q6207 175 6208 181Q6209 188 6204 193Q6203 197 6205 199Q6208 201 6209 204Q6207 212 6204 220Q6201 229 6201 238Q6201 241 6201 243Q6202 246 6202 248Q6197 261 6200 265Q6204 270 6204 273Q6204 279 6203 284Q6202 290 6202 295Q6202 303 6207 311Q6212 319 6207 326Q6212 338 6211 343Q6211 348 6209 351Q6211 356 6214 358Q6218 361 6221 364Q6225 375 6230 386Q6235 398 6244 406L6244 422Q6250 424 6252 429Q6254 435 6254 440Q6264 447 6269 455Q6274 464 6281 473Q6288 482 6294 489Q6301 497 6305 500Q6307 505 6309 509Q6312 513 6315 517Q6319 521 6325 521Q6332 521 6333 529Q6346 531 6350 536Q6355 541 6360 541Q6365 541 6369 538Q6373 536 6378 543Q6384 539 6389 542Q6395 545 6400 548Q6406 543 6416 547Q6427 551 6435 551Q6438 551 6443 553Q6448 556 6451 558Q6455 553 6460 558Q6465 563 6468 565Q6477 561 6484 563Q6491 565 6500 563Q6508 561 6509 562Q6510 563 6511 563Q6518 562 6523 558Q6529 555 6536 554Q6546 552 6555 552Q6565 552 6575 551Q6577 548 6578 544Q6579 541 6583 539Q6587 537 6588 536Q6589 535 6592 532Q6597 526 6599 526Q6602 526 6601 516Q6609 518 6610 515Q6611 513 6616 513Q6617 509 6619 506Q6621 503 6623 499Q6619 490 6618 480Q6618 470 6614 461Q6609 458 6606 458Q6604 458 6597 452Q6590 449 6588 450Q6586 451 6584 452Q6574 449 6573 450Q6573 452 6571 454Q6568 458 6564 458Q6560 458 6556 459Q6552 459 6549 461Q6546 463 6542 464Q6533 472 6526 475Q6520 479 6512 479Q6510 479 6507 478Q6504 478 6501 478Q6483 479 6470 477Q6458 476 6445 479Q6432 476 6428 464Q6421 462 6412 462Q6404 462 6396 460Q6389 459 6383 455Q6377 451 6374 443Q6369 444 6367 442Q6366 440 6363 438Q6357 437 6355 434Q6353 431 6352 428Q6352 426 6350 424Q6349 422 6343 423Q6343 417 6339 407Q6335 397 6342 395Q6337 394 6337 391Q6337 389 6331 391Q6330 381 6324 379Q6318 377 6317 369Q6312 354 6310 350Q6309 347 6306 339Q6304 334 6304 330Q6305 326 6303 322Q6298 320 6298 318Q6299 316 6299 312Q6290 301 6293 294Q6296 287 6287 278Q6293 274 6293 269Q6293 264 6292 259Q6291 255 6291 250Q6291 245 6292 241Q6293 238 6293 234Q6293 231 6292 228Q6291 225 6291 222Q6291 217 6293 213Q6296 209 6296 204Q6293 191 6296 188Q6299 186 6299 183Q6305 171 6309 164Q6314 157 6316 146Q6324 139 6328 130Q6332 121 6343 118Q6343 115 6344 112Q6345 110 6346 108Q6353 106 6357 102Q6362 99 6367 95Q6376 87 6384 88Q6392 89 6402 85Q6404 82 6411 80Q6418 78 6426 77Q6434 76 6442 75Q6450 75 6454 75Q6462 75 6467 82Q6473 78 6480 80Q6485 80 6486 82Q6487 85 6490 87Q6498 83 6504 88Q6510 93 6513 93Q6516 93 6516 90Q6517 88 6524 88Q6529 88 6530 91Q6532 95 6535 97Q6538 97 6543 96Q6549 95 6555 94Q6561 94 6566 95Q6571 96 6574 99Q6577 97 6581 97Q6585 98 6589 100Q6593 103 6597 105Q6601 107 6604 108Q6604 114 6601 117Q6599 120 6599 123Q6599 128 6603 133Q6607 138 6607 145Q6607 150 6604 154Q6601 158 6601 162Q6601 166 6602 170Q6603 174 6603 178Q6603 188 6599 197Q6596 206 6596 215Q6596 217 6598 219Q6601 222 6601 224Q6598 230 6595 233Q6592 237 6584 235Q6583 239 6581 239Q6580 240 6582 245Q6573 251 6565 251Q6557 251 6547 251Q6542 251 6536 252Q6531 254 6526 254Q6521 254 6517 251Q6514 249 6511 249Q6494 251 6483 246Q6473 241 6465 239Q6457 244 6449 242Q6441 241 6432 241Q6427 241 6424 243Q6421 246 6416 246Q6404 247 6399 242Q6391 245 6383 250Q6376 255 6368 258Q6368 264 6365 269Q6363 275 6361 280Q6359 285 6358 291Q6358 297 6360 304Q6365 306 6374 311Q6383 316 6383 321Q6393 329 6405 327Q6418 325 6430 325Q6435 325 6440 326Q6446 328 6451 328Q6465 328 6483 325Q6501 323 6515 328Q6527 335 6532 333Q6537 332 6542 337Q6553 332 6562 337Q6572 342 6580 350Q6582 350 6584 345Q6586 340 6588 338Q6594 340 6600 337Q6607 334 6612 338Q6615 338 6618 334Q6621 330 6625 328Q6634 324 6644 325Q6654 327 6662 323Q6667 321 6668 316Q6670 312 6676 313L6679 289Q6681 283 6683 276Q6685 270 6686 264Q6686 260 6684 257Q6682 255 6680 251Q6682 243 6686 240Q6691 238 6696 233Q6696 228 6692 225Q6689 223 6688 218Q6692 214 6692 207Q6693 200 6693 191Q6694 183 6695 175Q6696 168 6700 162Q6697 153 6698 144Q6700 136 6701 127Q6703 119 6703 111Q6703 103 6698 96Z" fill="#435e55" style=""></path></g></g><g transform="matrix(2.385,0,0,2.385,-3240.6978,1013.9017)"><g transform="matrix(1,0,0,-1,0,0)"><path d="M514 150Q519 157 518 159Q517 161 517 162L529 162Q531 166 531 167Q531 169 531 169Q531 170 532 171Q534 172 539 174Q541 177 544 180Q547 184 549 187Q559 191 569 190Q579 189 589 187Q596 168 596 159Q597 151 595 145Q593 140 589 134Q586 128 586 115Q586 107 585 104Q579 99 575 96Q571 94 570 85Q564 85 561 83Q558 81 555 78Q553 75 550 72Q547 70 541 70Q536 68 533 63Q531 59 529 55Q524 55 520 52Q516 50 511 49Q504 42 502 41Q500 40 498 40Q492 38 489 32Q487 27 481 25Q469 21 454 21Q440 21 432 10Q416 8 401 3Q387 -1 372 -6Q365 0 353 -1Q342 -2 334 -2Q327 -2 322 3Q318 2 311 0Q304 -1 297 -1Q290 -1 284 1Q278 4 276 10Q274 9 271 8Q268 7 266 6Q244 11 223 17Q203 23 183 34L165 34Q162 40 155 42Q149 44 147 51Q143 53 139 54Q136 55 131 56Q122 64 119 68Q117 73 103 72Q105 81 103 82Q101 84 99 86Q93 91 94 95Q95 99 87 101Q87 104 86 106Q85 108 85 111Q83 113 79 115Q76 117 74 119Q72 130 69 133Q66 145 64 147Q63 150 63 154Q61 157 60 159Q59 162 55 164Q53 176 51 190Q49 204 42 214Q44 228 39 242Q35 257 35 271Q35 275 36 278Q37 281 37 285Q37 294 34 303Q31 312 31 320Q31 329 35 337Q39 345 31 354Q35 365 33 367Q31 369 31 372Q31 377 33 380Q35 384 35 389Q33 409 37 419Q41 429 39 442Q40 443 42 446Q44 450 46 454Q49 459 50 463Q52 468 53 470Q53 472 51 474Q50 477 50 480Q50 482 52 484Q54 486 55 489Q56 492 54 497Q53 502 59 503Q58 517 64 529Q71 541 67 554Q73 558 76 562Q79 566 78 574Q86 578 90 585Q94 593 96 602Q107 607 109 617Q112 627 123 632Q128 641 130 643Q133 645 135 649Q140 656 147 658Q155 661 158 666Q173 678 176 685Q179 692 189 696Q197 699 200 701Q203 703 208 710L222 710Q229 713 237 719Q243 718 248 719Q253 720 258 725Q272 725 287 730Q303 735 317 728Q323 731 331 731Q340 731 349 730Q358 729 367 728Q376 728 384 730Q390 725 398 724Q407 723 415 726Q418 719 424 719Q430 720 434 715Q439 715 442 714Q445 713 449 712Q451 709 453 705Q456 702 458 698Q469 697 478 690Q487 683 489 670Q492 668 495 665Q499 663 500 659Q507 659 510 656Q513 653 516 648Q525 646 531 641Q538 637 545 631Q545 625 546 618Q548 612 540 609L541 599Q539 596 537 593Q536 591 534 588Q529 580 526 572Q523 564 511 564Q506 564 501 565Q497 567 492 567Q485 573 483 578Q482 583 471 582Q471 593 467 596Q463 600 461 609Q454 611 450 616Q447 621 442 626Q433 628 428 632Q423 636 412 636Q395 645 382 646Q369 647 355 649Q349 648 346 645Q344 642 337 647Q335 647 331 644Q328 641 324 648Q313 643 304 649Q302 647 300 644Q299 642 293 643Q279 644 265 642Q251 640 243 626Q235 624 229 617Q223 611 215 608Q213 607 211 604Q210 602 209 600L199 600Q194 596 192 589Q191 583 184 579Q185 571 179 566Q174 561 166 559Q164 554 161 548Q159 543 154 540Q158 535 156 532Q154 530 149 528Q149 517 148 514Q147 512 140 503Q142 500 141 496Q140 493 138 490Q140 485 138 484Q136 484 143 480Q135 472 134 460Q133 449 131 438Q130 431 128 427Q127 423 125 420Q124 417 123 412Q123 408 124 399Q121 397 120 394Q120 392 118 389Q120 381 119 374Q118 367 118 359Q118 349 119 339Q120 329 120 319Q120 316 121 313Q122 311 122 308Q117 295 118 289Q120 284 121 280Q123 272 123 264Q123 257 125 249Q126 244 131 239Q126 231 129 226Q133 221 133 213Q135 208 135 205Q135 202 134 200Q140 192 143 189Q146 186 148 176Q154 167 154 163Q154 159 161 157Q161 146 163 142Q165 138 169 135Q173 133 177 130Q182 128 185 121Q201 121 208 114Q216 107 230 106Q233 101 237 99Q242 97 245 93Q253 91 260 91Q268 92 273 86Q276 86 277 88Q278 90 285 88Q285 81 296 82Q307 84 309 85Q322 78 334 75Q346 73 358 73Q366 73 374 75Q383 77 392 77Q404 83 410 83Q416 84 421 86Q430 89 438 94Q446 99 455 101Q458 105 463 107Q468 110 472 113Q477 116 480 119Q484 122 484 127Q489 128 492 131Q496 134 499 138Q502 142 505 145Q509 149 514 150ZM1079 686Q1083 688 1091 688Q1095 683 1100 680Q1105 678 1111 675Q1117 673 1122 670Q1128 668 1129 667Q1136 665 1142 662Q1149 660 1153 653Q1164 650 1170 644Q1176 639 1190 637Q1195 616 1204 606Q1213 597 1225 581Q1225 570 1229 561Q1234 552 1234 541Q1234 532 1231 523Q1229 514 1229 505Q1229 497 1231 488Q1234 480 1234 472Q1234 464 1232 460Q1236 453 1235 451Q1235 450 1243 445Q1240 440 1238 437Q1237 435 1237 433Q1237 431 1237 428Q1238 426 1238 421Q1238 415 1236 412Q1235 409 1233 406Q1232 403 1230 398Q1229 394 1230 385Q1223 381 1222 377Q1221 373 1217 371Q1219 365 1219 361Q1212 355 1211 350Q1211 345 1206 339Q1207 334 1207 330Q1207 327 1209 322Q1205 314 1199 313Q1198 308 1190 306Q1190 303 1190 300Q1190 298 1191 296Q1183 296 1180 295Q1178 294 1176 292Q1175 291 1173 288Q1172 286 1168 283Q1165 275 1161 270Q1158 265 1149 269Q1142 264 1136 261Q1130 259 1124 251Q1117 251 1108 246Q1100 242 1090 237Q1080 232 1068 227Q1056 223 1043 223Q1037 221 1031 217Q1026 214 1020 219Q1004 217 989 212Q974 207 957 207Q954 207 946 209Q943 204 941 201Q940 199 933 198Q919 200 915 199Q912 198 901 198Q897 198 893 198Q889 199 885 199Q879 199 873 196Q868 194 862 194Q852 191 844 191Q837 192 832 193Q823 189 818 190Q817 182 818 173Q819 165 821 157Q818 155 815 151Q813 148 811 145Q816 139 816 135Q816 131 816 126Q816 122 817 115Q819 109 826 100Q824 93 825 90Q827 87 827 83Q827 77 824 74Q822 72 820 68Q819 64 820 59Q821 55 821 51Q821 41 816 32Q811 24 808 16Q801 15 800 14Q800 13 795 11Q792 3 787 -2Q782 -7 779 -15Q774 -21 766 -21Q758 -20 750 -21Q748 -17 746 -13Q744 -8 741 -4Q736 -1 735 5Q727 10 727 13Q728 16 723 19Q724 26 723 33Q723 41 725 47Q719 54 719 62Q719 67 721 69Q723 71 725 76Q730 88 726 105Q723 123 731 137L727 147Q727 153 728 154Q730 156 732 161Q725 173 729 178Q729 186 726 189Q723 193 727 203Q727 208 726 212Q726 216 727 221Q720 224 717 224Q717 229 718 236Q720 243 727 245Q725 262 726 278Q728 295 728 312Q728 323 725 334Q723 345 723 352Q721 365 721 368Q721 372 722 375Q723 379 722 383Q722 387 717 395Q724 402 722 407Q720 412 722 420Q716 434 717 445Q719 457 719 471Q713 479 713 486Q713 493 713 502Q713 508 711 514Q709 520 709 527Q704 535 705 537Q704 541 705 544Q706 548 706 552Q706 559 703 566Q700 574 700 582Q700 584 701 587Q702 590 702 592Q702 599 699 604Q696 609 699 617Q694 627 691 633Q688 639 691 650Q689 656 689 660Q690 674 697 686Q704 698 718 703Q725 705 731 704Q738 703 745 707Q755 708 760 701Q773 704 777 703Q781 702 789 702Q792 702 794 704Q796 707 798 709Q803 707 807 705Q811 704 816 703Q835 711 855 716Q876 721 896 712Q901 713 904 714Q907 716 912 716Q923 710 940 710Q958 710 972 707Q981 706 983 705Q986 705 988 703Q991 702 993 701Q996 700 1001 702Q1004 700 1007 698Q1011 696 1014 694Q1017 695 1020 694Q1023 694 1027 694Q1030 694 1033 695Q1036 697 1038 698Q1042 699 1047 699Q1052 699 1056 699Q1060 702 1068 696Q1076 691 1079 686ZM1134 391L1136 393Q1135 401 1140 405Q1145 409 1147 416Q1143 424 1145 437Q1147 451 1147 460Q1146 465 1143 470Q1140 476 1140 482Q1133 505 1141 520Q1139 525 1138 531Q1138 537 1137 542Q1135 551 1129 557Q1123 563 1120 571Q1111 574 1105 577Q1100 581 1094 584Q1089 587 1082 589Q1075 591 1064 590Q1062 593 1060 595Q1058 598 1056 600Q1048 600 1045 603Q1042 606 1037 607Q1032 609 1018 610Q1005 612 1002 612Q989 610 984 610Q979 610 967 615Q956 620 945 617Q937 625 930 627Q923 629 912 625Q905 631 898 630Q891 630 883 628Q881 630 878 631Q875 632 873 634Q863 623 847 628Q844 626 840 625Q837 624 834 623Q829 615 822 611Q816 605 809 608Q801 616 787 609Q787 603 789 598Q792 594 787 589Q793 575 790 572Q787 569 788 561Q792 555 793 549Q794 543 794 536Q795 530 796 523Q798 516 803 509Q797 499 801 491Q805 483 803 472Q808 465 808 459Q809 453 816 445Q812 443 806 439Q806 429 809 422Q813 416 807 406Q810 401 812 393Q815 386 813 381Q818 374 815 366Q816 353 818 343Q820 334 820 321Q827 313 824 302Q822 291 822 282Q833 283 838 283Q844 283 855 288L867 278Q871 283 877 283Q883 283 888 281Q892 284 895 285Q898 287 901 290Q910 288 917 290Q925 292 933 288Q941 291 947 292Q953 294 961 292Q966 295 969 298Q973 301 978 303Q980 298 981 297Q982 297 986 295Q988 297 990 298Q992 300 994 302Q1003 302 1010 306Q1018 310 1026 308Q1030 310 1033 311Q1036 313 1039 317Q1049 311 1054 314Q1060 317 1071 317Q1073 317 1079 321Q1086 326 1091 327Q1094 332 1098 335Q1102 338 1107 341Q1109 348 1112 352Q1115 356 1118 360Q1121 364 1123 369Q1126 374 1126 383L1134 391Z" fill="#435e55" style=""></path></g></g></g></svg>