<svg version="1.1" xmlns="http://www.w3.org/2000/svg" viewBox="-747.1840779731365 -1524.4423385584382 3455.3282612500875 2580.91662112283"><desc>Created with Snap</desc><defs><linearGradient x1="-747.1840779731365" y1="-1524.4423385584382" x2="2708.144183276951" y2="-1524.4423385584382" gradientUnits="userSpaceOnUse" id="linearGradientSljmy50fd6b"><stop offset="0%" stop-color="#081c4f"></stop><stop offset="100%" stop-color="#157c79"></stop></linearGradient></defs><g><rect x="-747.1840779731365" y="-1524.4423385584382" width="3455.3282612500875" height="2580.91662112283" fill="url('#linearGradientSljmy50fd6b')"></rect><g transform="matrix(7.3051,0,0,7.3051,-480.5377,-1695.0017)">
<g id="gSljmy50fd5q">
	<g>
		<path d="M387.88501,83.59349V316.4075H12.115V83.59349H387.88501 M391.96945,79.50903H8.03054v240.98294h383.9389V79.50903
			L391.96945,79.50903z" fill="#ffffff" style=""></path>
		<path d="M38.30037,67.71037l353.83911,50.25497l-30.43997,214.32426L7.86052,282.03564L38.30037,67.71037 M36.56565,65.4009
			L5.55142,283.77075l357.88281,50.82834l31.01434-218.36884L36.56565,65.4009L36.56565,65.4009z" fill="#ffffff" style=""></path>
		<path d="M361.69949,67.71037l30.43997,214.32527L38.30037,332.28961L7.86052,117.96535L361.69949,67.71037 M363.43423,65.4009
			L5.55142,116.23025l31.01422,218.36884l357.88293-50.82834L363.43423,65.4009L363.43423,65.4009z" fill="#ffffff" style=""></path>
	</g>
</g>


<desc>Created with Snap</desc><defs></defs></g><g><g transform="matrix(1.024,0,0,-1.024,0,0)"><path d="M44 0L44 30Q75 30 87 45Q99 61 101 88Q103 116 103 152L103 380Q103 396 104 410Q105 425 107 445Q89 444 71 443Q54 442 36 441L36 483Q80 483 104 487Q128 491 140 497Q153 503 160 510L189 510L189 106Q189 86 188 70Q188 55 185 38Q201 39 216 39Q232 40 248 41L248 0L44 0ZM141 609Q120 609 104 626Q88 643 88 668Q88 693 104 710Q121 728 142 728Q165 728 180 710Q196 693 196 668Q196 643 179 626Q163 609 141 609ZM529 0L325 0L325 30Q356 30 368 45Q380 61 382 88Q384 116 384 152L384 380Q384 396 384 412Q385 428 388 445Q370 444 352 443Q335 442 317 441L317 483Q361 483 383 487Q406 491 417 497Q428 503 435 510L464 510Q466 500 466 487Q467 474 468 457Q498 483 537 499Q576 516 615 516Q665 516 699 498Q733 480 752 449Q786 477 830 496Q875 516 918 516Q1005 516 1046 463Q1087 411 1085 292L1084 106Q1084 86 1083 70Q1083 55 1080 38Q1096 39 1111 39Q1127 40 1143 41L1143 0L939 0L939 30Q970 30 982 45Q994 61 996 88Q998 116 998 152L998 292Q998 378 970 421Q943 464 884 463Q853 463 822 449Q791 435 768 414Q773 398 775 379Q778 361 778 341Q777 283 777 224Q777 165 776 106Q776 86 775 70Q775 55 772 38Q788 39 803 39Q819 40 835 41L835 0L631 0L631 30Q662 30 673 45Q685 61 687 88Q690 116 690 152L691 292Q692 378 666 422Q640 466 581 465Q550 465 520 451Q490 438 469 417Q469 405 469 391Q470 378 470 363L470 106Q470 86 469 70Q469 55 466 38Q482 39 497 39Q513 40 529 41L529 0ZM1666 0L1523 0Q1520 17 1519 30Q1518 43 1516 57Q1482 23 1442 3Q1403 -16 1359 -16Q1283 -16 1246 18Q1209 53 1209 103Q1209 149 1237 182Q1266 216 1311 237Q1357 259 1410 269Q1464 280 1514 279L1514 341Q1514 376 1508 407Q1502 438 1482 458Q1462 478 1418 479Q1389 480 1358 468Q1328 456 1314 427Q1322 419 1324 408Q1327 398 1327 389Q1327 377 1317 361Q1307 346 1282 347Q1261 347 1250 361Q1239 376 1239 396Q1239 430 1264 457Q1290 484 1335 500Q1380 516 1437 516Q1521 516 1561 471Q1601 427 1600 331Q1600 294 1600 256Q1600 219 1599 181Q1599 144 1599 106Q1599 90 1598 74Q1597 58 1595 38Q1613 39 1630 40Q1648 41 1666 42L1666 0ZM1514 245Q1480 244 1442 236Q1405 229 1373 214Q1342 199 1322 174Q1303 150 1304 115Q1306 78 1328 59Q1351 41 1382 41Q1423 41 1453 56Q1484 72 1514 100Q1513 111 1513 124Q1513 137 1513 151Q1513 156 1513 183Q1514 210 1514 245ZM1682 -271Q1641 -271 1622 -254Q1603 -237 1603 -215Q1603 -197 1614 -183Q1626 -168 1646 -168Q1671 -167 1680 -183Q1690 -198 1690 -210Q1690 -212 1690 -215Q1690 -217 1689 -219Q1703 -225 1715 -225Q1744 -225 1759 -204Q1774 -183 1779 -151Q1784 -119 1784 -86L1786 380Q1786 396 1786 410Q1787 425 1789 445Q1771 444 1753 443Q1736 442 1718 441L1718 483Q1762 483 1786 487Q1811 491 1823 497Q1836 503 1843 510L1872 510L1872 -3Q1872 -96 1847 -156Q1822 -215 1779 -243Q1736 -271 1682 -271ZM1824 609Q1803 609 1787 626Q1771 643 1771 668Q1771 693 1787 710Q1804 728 1825 728Q1848 728 1863 710Q1879 693 1879 668Q1879 643 1862 626Q1846 609 1824 609Z" fill="#ffffff" style=""></path></g></g></g></svg>