<svg version="1.1" xmlns="http://www.w3.org/2000/svg" viewBox="-272.38399810791014 -1176.5760375976563 4566.0162109375 3229.6961303710937"><desc>Created with Snap</desc><defs></defs><g><g><g transform="matrix(1.024,0,0,-1.024,0,0)"><path d="M327 -8Q194 -8 114 42Q34 93 34 197Q34 252 53 281Q72 310 109 310Q136 310 153 296Q170 282 170 260Q170 240 167 225Q167 221 165 211Q164 201 164 190Q164 145 209 123Q255 101 337 101Q422 101 470 131Q518 162 518 217Q518 251 496 275Q474 300 441 316Q408 333 348 357Q271 387 222 414Q174 441 139 487Q105 534 105 603Q105 675 143 731Q182 787 254 818Q327 849 425 849Q498 849 559 827Q620 806 656 762Q693 718 693 654Q693 591 674 559Q655 527 618 527Q592 527 574 543Q557 559 557 581Q557 600 560 616Q563 646 563 654Q563 696 522 718Q481 740 420 740Q334 740 288 708Q243 677 243 620Q243 582 266 555Q290 528 325 510Q360 492 423 467Q499 436 545 411Q591 386 623 343Q656 300 656 237Q656 119 566 55Q477 -8 327 -8ZM843 -5Q798 -5 769 36Q741 78 741 140Q741 215 751 277Q761 340 784 410Q794 440 812 453Q830 466 869 466Q891 466 899 459Q908 452 908 438Q908 430 897 384Q887 347 881 317Q861 212 861 177Q861 156 866 147Q871 139 882 139Q897 139 919 169Q942 199 967 260Q993 321 1017 410Q1025 440 1041 453Q1058 466 1091 466Q1114 466 1123 460Q1132 455 1132 440Q1132 415 1107 303Q1079 175 1079 145Q1079 126 1087 115Q1095 105 1108 105Q1128 105 1155 129Q1183 154 1229 209Q1241 223 1256 223Q1269 223 1276 211Q1284 199 1284 178Q1284 138 1265 116Q1222 63 1172 29Q1123 -5 1060 -5Q1012 -5 989 32Q967 69 967 136Q950 68 916 31Q882 -5 843 -5ZM1274 -5Q1236 -5 1220 35Q1205 75 1205 163Q1205 293 1242 410Q1251 439 1271 452Q1292 466 1329 466Q1349 466 1357 461Q1365 456 1365 442Q1365 426 1350 370Q1340 330 1334 300Q1328 271 1324 227Q1351 305 1388 359Q1426 413 1465 439Q1505 466 1540 466Q1575 466 1589 450Q1604 434 1604 401Q1604 369 1585 285Q1577 249 1574 231Q1624 354 1685 410Q1746 466 1799 466Q1864 466 1864 401Q1864 362 1842 260Q1823 173 1823 145Q1823 105 1852 105Q1872 105 1899 129Q1927 154 1973 209Q1985 223 2000 223Q2013 223 2020 211Q2028 199 2028 178Q2028 138 2009 116Q1966 63 1916 29Q1867 -5 1804 -5Q1753 -5 1727 24Q1701 54 1701 110Q1701 138 1715 210Q1728 273 1728 297Q1728 313 1717 313Q1704 313 1680 279Q1656 246 1632 191Q1608 136 1593 75Q1582 27 1567 11Q1553 -5 1521 -5Q1488 -5 1471 26Q1455 58 1455 103Q1455 141 1465 213Q1473 277 1473 297Q1473 313 1462 313Q1447 313 1424 277Q1401 241 1379 185Q1358 129 1345 75Q1334 28 1319 11Q1305 -5 1274 -5ZM2457 307Q2470 307 2477 294Q2484 281 2484 261Q2484 213 2455 204Q2395 183 2323 180Q2304 96 2248 45Q2192 -5 2121 -5Q2061 -5 2018 24Q1976 53 1954 101Q1932 149 1932 205Q1932 281 1961 340Q1990 400 2041 433Q2092 467 2154 467Q2230 467 2276 414Q2323 362 2331 285Q2378 288 2443 305Q2451 307 2457 307ZM2129 101Q2161 101 2184 127Q2208 153 2216 202Q2185 223 2168 257Q2152 291 2152 329Q2152 345 2155 361L2150 361Q2110 361 2083 322Q2057 284 2057 214Q2057 159 2078 130Q2100 101 2129 101Z" fill="#fca164" style=""></path></g></g><g transform="matrix(1,0,0,1,-30.72,1277.9521)"><g transform="matrix(1.024,0,0,-1.024,0,0)"><path d="M453 -5Q334 -5 246 38Q158 82 111 162Q64 242 64 348Q64 495 119 609Q175 723 270 785Q365 848 481 848Q589 848 645 792Q701 737 701 646Q701 585 679 548Q658 511 618 511Q590 511 574 524Q558 537 558 562Q558 571 562 595Q568 625 568 643Q568 734 471 734Q405 734 345 691Q285 648 248 564Q211 481 211 366Q211 246 278 180Q345 115 476 115Q541 115 607 131Q674 148 755 182Q770 188 780 188Q796 188 804 176Q812 164 812 145Q812 84 746 55Q675 24 598 9Q522 -5 453 -5ZM1244 307Q1257 307 1264 294Q1271 281 1271 261Q1271 213 1242 204Q1182 183 1110 180Q1091 96 1035 45Q979 -5 908 -5Q848 -5 805 24Q763 53 741 101Q719 149 719 205Q719 281 748 340Q777 400 828 433Q879 467 941 467Q1017 467 1063 414Q1110 362 1118 285Q1165 288 1230 305Q1238 307 1244 307ZM916 101Q948 101 971 127Q995 153 1003 202Q972 223 955 257Q939 291 939 329Q939 345 942 361L937 361Q897 361 870 322Q844 284 844 214Q844 159 865 130Q887 101 916 101ZM1256 -5Q1218 -5 1202 35Q1187 75 1187 163Q1187 293 1224 410Q1233 439 1253 452Q1274 466 1311 466Q1331 466 1339 461Q1347 456 1347 442Q1347 426 1332 370Q1322 330 1316 300Q1310 271 1306 227Q1333 305 1370 359Q1408 413 1447 439Q1487 466 1522 466Q1557 466 1571 450Q1586 434 1586 401Q1586 369 1567 285Q1559 249 1556 231Q1606 354 1667 410Q1728 466 1781 466Q1846 466 1846 401Q1846 362 1824 260Q1805 173 1805 145Q1805 105 1834 105Q1854 105 1881 129Q1909 154 1955 209Q1967 223 1982 223Q1995 223 2002 211Q2010 199 2010 178Q2010 138 1991 116Q1948 63 1898 29Q1849 -5 1786 -5Q1735 -5 1709 24Q1683 54 1683 110Q1683 138 1697 210Q1710 273 1710 297Q1710 313 1699 313Q1686 313 1662 279Q1638 246 1614 191Q1590 136 1575 75Q1564 27 1549 11Q1535 -5 1503 -5Q1470 -5 1453 26Q1437 58 1437 103Q1437 141 1447 213Q1455 277 1455 297Q1455 313 1444 313Q1429 313 1406 277Q1383 241 1361 185Q1340 129 1327 75Q1316 28 1301 11Q1287 -5 1256 -5ZM2463 223Q2476 223 2483 211Q2491 199 2491 178Q2491 138 2472 116Q2429 63 2379 29Q2330 -5 2267 -5Q2214 -5 2181 33Q2124 -4 2062 -5Q2049 -198 2003 -328Q1957 -457 1868 -457Q1814 -457 1788 -418Q1762 -379 1762 -310Q1762 -212 1807 -82Q1852 49 1946 206Q1946 352 1944 409Q1943 438 1967 455Q1991 472 2027 472Q2048 472 2057 463Q2067 455 2068 430Q2068 405 2069 393Q2101 433 2132 450Q2163 468 2198 468Q2254 468 2289 423Q2325 378 2325 305Q2325 252 2308 202Q2291 152 2261 111Q2282 105 2296 105Q2329 105 2359 129Q2389 153 2436 209Q2448 223 2463 223ZM2067 91Q2103 99 2133 130Q2164 162 2182 208Q2200 255 2200 306Q2200 336 2188 351Q2176 367 2156 367Q2120 367 2069 291Q2068 247 2068 162Q2068 116 2067 91ZM1876 -359Q1903 -359 1921 -242Q1939 -124 1944 51Q1901 -49 1876 -140Q1851 -231 1851 -293Q1851 -325 1858 -342Q1866 -359 1876 -359ZM2541 532Q2499 532 2478 551Q2457 571 2457 606Q2457 641 2484 664Q2512 688 2553 688Q2590 688 2613 670Q2636 652 2636 619Q2636 579 2610 555Q2584 532 2541 532ZM2533 -5Q2468 -5 2438 41Q2409 87 2409 163Q2409 208 2420 278Q2432 349 2450 410Q2459 442 2474 454Q2489 466 2522 466Q2573 466 2573 432Q2573 407 2554 316Q2530 206 2530 167Q2530 137 2538 121Q2546 105 2565 105Q2583 105 2610 130Q2637 155 2682 209Q2694 223 2709 223Q2722 223 2729 211Q2737 199 2737 178Q2737 138 2718 116Q2619 -5 2533 -5ZM3035 223Q3048 223 3055 211Q3063 199 3063 178Q3063 138 3044 116Q3001 63 2950 29Q2900 -5 2836 -5Q2748 -5 2705 75Q2663 155 2663 282Q2663 404 2694 560Q2726 716 2787 828Q2849 940 2934 940Q2982 940 3009 895Q3037 851 3037 768Q3037 649 2971 492Q2905 335 2792 181Q2799 140 2815 122Q2831 105 2857 105Q2898 105 2929 128Q2960 152 3008 209Q3020 223 3035 223ZM2912 841Q2889 841 2860 758Q2831 675 2809 552Q2787 429 2785 316Q2856 433 2898 550Q2940 668 2940 765Q2940 841 2912 841ZM3428 223Q3441 223 3448 211Q3456 199 3456 178Q3456 138 3437 116Q3400 71 3332 33Q3265 -5 3188 -5Q3083 -5 3025 52Q2967 109 2967 208Q2967 277 2996 336Q3025 396 3076 431Q3128 466 3193 466Q3251 466 3286 431Q3321 397 3321 338Q3321 269 3271 219Q3222 170 3104 141Q3129 95 3199 95Q3244 95 3301 126Q3359 158 3401 209Q3413 223 3428 223ZM3176 368Q3139 368 3113 325Q3088 282 3088 221L3088 219Q3147 233 3181 261Q3215 289 3215 326Q3215 345 3204 356Q3194 368 3176 368ZM3446 -5Q3408 -5 3392 35Q3377 75 3377 163Q3377 293 3414 410Q3423 439 3443 452Q3464 466 3501 466Q3521 466 3529 461Q3537 456 3537 442Q3537 426 3522 370Q3512 330 3506 300Q3500 270 3496 226Q3529 312 3570 366Q3611 420 3650 443Q3690 466 3723 466Q3788 466 3788 401Q3788 388 3779 338Q3771 298 3771 288Q3771 253 3796 253Q3824 253 3868 297Q3881 310 3895 310Q3908 310 3915 298Q3923 287 3923 268Q3923 231 3903 210Q3875 181 3837 160Q3800 140 3758 140Q3705 140 3677 167Q3650 194 3650 240Q3650 255 3653 270Q3655 290 3655 297Q3655 313 3644 313Q3629 313 3604 279Q3580 246 3556 191Q3532 136 3517 75Q3506 28 3491 11Q3477 -5 3446 -5Z" fill="#fca164" style=""></path></g></g></g></svg>