<svg version="1.1" xmlns="http://www.w3.org/2000/svg" viewBox="0 0 250 250"><desc>Created with Snap</desc><defs></defs><g transform="matrix(0.0515,0,0,0.0515,58.8723,154.6897)"><g transform="matrix(10.6702,0,0,10.6702,-849.2976,-2599.2955)">
<g id="gSljmyfovn2uf">
	<g>
		<path d="M162.71262,346.57227c-14.57422,0.00098-26.57324-0.58203-34.60059-1.12695
			c-43.97167-2.98145-97.11523-10.67871-117.94823-44.00879c-12.57422-20.11719-11.95312-47.54297,1.84473-81.51465
			c10.75293-26.47314,66.19141-80.56641,82.92578-96.51514c40.24706-38.35449,79.8789-70.68994,96.37695-78.63379l1.08496,2.25244
			l-1.08496-2.25244c24.00977-11.56006,50.65137-15.04297,77.04883-10.06885c24.47852,4.61182,48.42383,16.30225,69.24707,33.80713
			c23.28809,19.57715,41.71094,45.91064,51.87402,74.1499c11.04004,30.67285,12.3623,62.81934,3.82422,92.96387
			c-12.95508,45.74023-50.76758,78.02441-112.38672,95.95703C239.05637,343.76465,194.69406,346.57227,162.71262,346.57227z
			 M244.99973,37.46191c-17.61816,0-35.0625,3.89209-51.51855,11.81592C159.5759,65.60254,32.40207,182.99951,16.64133,221.80273
			c-13.16113,32.40234-13.91406,58.30371-2.2373,76.9834c19.63281,31.41113,71.26172,38.76953,114.04589,41.6709
			c25.37988,1.7207,90.90137,3.83496,151.07227-13.67578c59.85449-17.41895,96.51855-48.54688,108.97266-92.51953
			c8.25098-29.13379,6.96582-60.22314-3.71777-89.90771c-9.86914-27.42139-27.76367-52.99707-50.38672-72.01514
			C307.01828,49.32959,275.7507,37.46191,244.99973,37.46191z" fill="#daa03d" style=""></path>
	</g>
</g>


<desc>Created with Snap</desc><defs></defs></g><g><g transform="matrix(1,0,0,-1,0,0)"><path d="M261 16Q234 88 161 230Q88 373 64 420Q11 529 11 548Q11 561 62 581Q97 516 127 451Q158 387 188 330Q259 191 304 138Q320 154 376 274L458 447Q524 587 543 630Q578 672 602 672Q626 672 626 630L342 7Q325 -4 298 -4Q272 -4 261 16ZM1138 -49L1138 134Q1043 69 1006 48Q920 1 855 1Q777 1 721 58Q664 117 664 193Q669 273 698 355Q758 529 897 610Q966 651 1056 651Q1058 651 1060 651L1087 652Q1133 652 1129 616Q1049 612 979 579Q909 546 857 490Q806 435 776 361Q747 287 747 210Q747 133 787 99Q827 65 890 65Q944 65 1040 112Q1101 142 1131 180Q1146 198 1146 218L1146 366Q1116 366 1006 343Q897 320 880 317Q875 320 868 323Q861 327 860 334Q858 349 904 380Q915 386 1036 403Q1157 421 1190 426Q1223 431 1245 434Q1255 432 1270 434Q1285 437 1298 436Q1330 435 1328 401L1245 367Q1226 306 1226 137L1228 -12Q1228 -32 1228 -49Q1198 -64 1170 -64Q1142 -64 1138 -49ZM1373 133Q1373 149 1370 177Q1368 206 1366 240Q1364 274 1364 309Q1364 344 1370 373Q1383 438 1424 438Q1452 430 1461 418Q1471 406 1471 388Q1471 371 1462 345Q1429 258 1429 188Q1429 165 1432 139Q1448 72 1542 72Q1591 72 1635 89Q1719 120 1749 162Q1758 208 1758 242Q1758 277 1755 304Q1753 331 1749 363Q1746 396 1745 435Q1758 441 1770 441Q1783 441 1796 428Q1810 415 1819 379Q1829 343 1832 294Q1835 246 1835 194Q1836 142 1836 93Q1836 45 1840 10Q1828 -1 1817 -1Q1777 -1 1758 79Q1745 68 1714 52Q1648 16 1558 4Q1541 2 1520 2Q1499 2 1467 10Q1436 18 1408 47Q1380 76 1373 133ZM2389 365Q2347 395 2281 395Q2219 395 2166 372Q2066 330 2029 264Q2013 234 2013 200Q2013 194 2013 166Q2013 139 2023 92Q2033 46 2033 -2Q2012 -3 1999 -7Q1986 -11 1977 -11Q1968 -11 1961 -3Q1955 5 1947 28Q1946 34 1943 62Q1940 90 1935 130Q1931 170 1925 217Q1920 265 1915 311Q1904 411 1898 458Q1898 482 1933 482Q1954 482 1966 464Q1978 447 1985 424Q1992 402 1994 380Q1997 358 1999 349Q2131 467 2327 467Q2349 467 2373 466Q2379 467 2388 467Q2397 467 2406 455Q2417 441 2417 421Q2417 371 2389 365ZM2458 133Q2458 149 2455 177Q2453 206 2451 240Q2449 274 2449 309Q2449 344 2455 373Q2468 438 2509 438Q2537 430 2546 418Q2556 406 2556 388Q2556 371 2547 345Q2514 258 2514 188Q2514 165 2517 139Q2533 72 2627 72Q2676 72 2720 89Q2804 120 2834 162Q2843 208 2843 242Q2843 277 2840 304Q2838 331 2834 363Q2831 396 2830 435Q2843 441 2855 441Q2868 441 2881 428Q2895 415 2904 379Q2914 343 2917 294Q2920 246 2920 194Q2921 142 2921 93Q2921 45 2925 10Q2913 -1 2902 -1Q2862 -1 2843 79Q2830 68 2799 52Q2733 16 2643 4Q2626 2 2605 2Q2584 2 2552 10Q2521 18 2493 47Q2465 76 2458 133Z" fill="#616247" style=""></path></g></g></g></svg>