<svg version="1.1" xmlns="http://www.w3.org/2000/svg" viewBox="0 0 250 250"><desc>Created with Snap</desc><defs></defs><g transform="matrix(0.0959,0,0,0.0959,28.8802,148.3301)"><rect x="-301.0559999465942" y="-1011.7120239257813" width="2606.0800537109376" height="1537.0240234375" fill="#efd9ce" style=""></rect><g><g transform="matrix(1.024,0,0,-1.024,0,0)"><path d="M515 449L515 367L468 367L318 0L268 -129L334 -129L334 -213L94 -213L94 -129L170 -129L214 -4L55 367L6 367L6 449L227 449L227 367L170 367L274 124L280 124L364 367L313 367L313 449L515 449ZM1040 235Q1040 140 990 65Q940 -10 836 -10Q730 -10 687 70Q685 58 682 35Q679 12 677 0L571 0Q577 33 582 67Q587 102 587 135L587 606L520 606L520 688L693 688L693 360Q713 400 749 429Q786 458 848 458Q933 458 986 399Q1040 341 1040 235ZM929 226Q929 297 897 334Q865 372 815 372Q758 372 726 330Q694 288 693 239L693 207Q693 152 725 113Q758 75 811 75Q867 75 898 116Q929 157 929 226ZM1430 154L1519 137Q1513 78 1461 34Q1409 -10 1318 -10Q1220 -10 1157 47Q1094 105 1094 217Q1094 320 1151 389Q1209 458 1312 458Q1405 458 1459 402Q1514 347 1515 262Q1515 234 1509 202L1206 202Q1215 76 1326 76Q1378 76 1400 101Q1423 126 1430 154ZM1207 268L1405 268Q1409 308 1386 343Q1364 379 1311 379Q1263 379 1238 347Q1213 315 1207 268ZM1848 456Q1893 456 1932 431L1951 291L1868 281L1851 358Q1831 368 1817 368Q1789 368 1768 345Q1748 322 1748 281L1748 82L1837 82L1837 0L1574 0L1574 82L1641 82L1641 366L1571 366L1571 449L1740 449L1740 365Q1752 403 1778 429Q1805 456 1848 456Z" fill="#292929" style=""></path></g></g></g></svg>