<?xml version="1.0" standalone="no"?>
<!DOCTYPE svg PUBLIC "-//W3C//DTD SVG 20010904//EN"
 "http://www.w3.org/TR/2001/REC-SVG-20010904/DTD/svg10.dtd">
<svg version="1.0" xmlns="http://www.w3.org/2000/svg"
 width="53.87" height="43.61" viewBox="0 0 400.000000 400.000000"
 preserveAspectRatio="xMidYMid meet">

<g transform="translate(0.000000,400.000000) scale(0.100000,-0.100000)"
fill="#7a0505" stroke="none">
<path d="M2275 3993 c-16 -2 -73 -8 -125 -14 -52 -7 -214 -15 -360 -19 -258
-8 -356 -19 -483 -53 -61 -17 -197 -81 -207 -97 -6 -10 -180 -78 -275 -107
-27 -9 -59 -19 -70 -23 -11 -5 -33 -13 -50 -19 -220 -75 -298 -116 -381 -198
-18 -18 -37 -33 -43 -33 -22 0 -236 -207 -245 -237 -4 -12 -13 -27 -21 -33
-13 -11 -15 -135 -15 -911 l0 -899 42 40 c24 23 62 49 86 60 23 10 49 26 58
35 8 8 22 15 30 15 8 0 14 4 14 9 0 19 67 49 124 54 41 4 70 14 99 34 22 15
55 37 73 47 19 11 34 24 34 30 0 5 13 24 28 41 16 16 35 46 42 65 7 19 18 42
25 50 6 8 20 32 30 52 11 21 26 39 35 42 12 3 12 4 -2 5 -15 1 -16 5 -7 29 20
52 68 148 93 185 15 21 26 46 26 55 0 9 8 31 19 47 10 17 24 48 31 70 7 22 21
52 31 67 11 14 19 30 19 34 0 4 6 15 13 23 8 9 21 40 30 69 9 30 26 65 37 79
11 14 20 34 20 44 0 10 14 41 30 67 17 27 30 52 30 56 0 7 49 76 61 86 3 3 9
17 13 33 3 15 12 27 19 27 7 0 42 31 78 70 35 38 69 70 76 70 6 0 26 13 43 29
18 16 44 32 59 35 14 3 67 17 116 31 104 29 109 29 99 13 -5 -8 0 -7 11 2 15
12 72 16 319 20 295 6 302 6 366 32 36 14 97 32 135 38 39 7 93 21 120 31 28
9 75 23 107 29 31 6 87 26 124 45 37 19 70 33 72 31 6 -7 -48 -86 -58 -86 -6
0 -10 -5 -10 -12 0 -6 -24 -35 -54 -62 -112 -106 -162 -152 -189 -172 -15 -12
-27 -26 -27 -32 0 -5 -53 -54 -117 -108 -64 -55 -126 -110 -137 -124 -62 -74
-247 -255 -293 -287 -29 -20 -53 -40 -53 -44 0 -4 -13 -12 -30 -18 -16 -5 -30
-16 -30 -23 0 -7 -25 -38 -55 -68 -30 -30 -76 -77 -102 -105 -26 -27 -74 -75
-105 -106 -42 -43 -68 -81 -103 -155 -26 -55 -51 -106 -56 -114 -24 -38 -49
-97 -49 -116 0 -20 -39 -134 -59 -171 -5 -10 -17 -39 -26 -65 -20 -59 -51 -98
-76 -98 -10 0 -19 4 -19 9 0 17 -44 20 -61 5 -18 -16 -39 -85 -39 -131 0 -15
-10 -48 -22 -73 -19 -40 -24 -56 -32 -96 -1 -6 -15 -24 -32 -40 -17 -16 -22
-23 -12 -15 22 18 -38 -107 -61 -127 -9 -8 -10 -11 -3 -7 17 9 10 -30 -10 -52
-9 -10 -20 -31 -24 -48 -3 -16 -17 -44 -30 -62 -13 -17 -24 -40 -24 -50 0 -11
-20 -38 -45 -62 -25 -24 -45 -48 -45 -53 0 -6 -11 -21 -24 -33 -25 -24 -106
-144 -106 -158 0 -5 -13 -25 -30 -44 -17 -19 -30 -45 -30 -60 0 -15 -9 -45
-19 -67 -26 -55 -38 -101 -23 -92 8 5 10 1 5 -10 -5 -13 -3 -15 8 -10 8 4 5 0
-5 -8 -11 -9 -16 -16 -11 -16 5 0 -4 -14 -21 -32 -16 -18 -21 -26 -11 -19 9 7
17 10 17 6 0 -5 8 -1 18 7 39 34 62 29 26 -6 -14 -15 -14 -17 0 -22 9 -3 14
-10 11 -14 -2 -4 10 -4 28 -1 25 5 38 17 59 56 15 28 28 46 28 40 0 -5 15 15
34 45 50 79 123 174 187 244 113 122 137 152 158 193 11 23 25 44 30 47 5 3
12 21 15 40 4 18 15 41 26 51 11 10 27 40 35 67 8 26 37 87 65 134 27 47 53
98 56 113 4 14 10 31 14 36 5 6 16 37 25 70 10 33 27 70 38 82 22 25 38 23 18
-1 -17 -21 -4 -56 20 -56 11 0 33 10 49 22 16 12 33 19 36 15 4 -3 25 12 48
33 22 22 46 40 52 40 6 0 28 19 50 43 40 41 55 54 144 123 25 19 59 47 75 62
17 16 48 41 70 56 76 51 110 77 151 115 22 20 56 48 75 62 54 37 98 80 136
132 20 27 59 62 87 78 66 39 112 72 134 97 9 10 42 39 72 63 81 65 86 70 140
121 27 27 54 48 61 48 6 0 41 32 78 70 37 39 72 70 77 70 6 0 23 13 39 30 16
16 33 30 38 30 5 0 50 34 100 75 85 69 133 112 208 190 16 17 48 42 71 55 24
14 82 63 129 110 48 47 112 108 143 135 31 28 56 59 56 68 0 10 -4 16 -9 13
-5 -4 -7 10 -4 31 4 34 -1 45 -44 96 -37 46 -52 57 -68 52 -37 -12 -49 -10
-53 6 -2 10 10 25 30 37 18 11 42 29 53 39 36 33 91 60 186 93 140 48 129 33
129 161 l0 110 -47 -3 c-39 -2 -49 -7 -51 -23 -6 -32 -20 -41 -34 -22 -11 14
-17 15 -35 4 -105 -59 -140 -76 -218 -101 -50 -16 -101 -34 -115 -41 -14 -7
-48 -18 -77 -25 -29 -6 -57 -18 -64 -26 -6 -8 -18 -14 -25 -14 -22 0 6 48 48
83 38 32 137 97 147 97 5 0 21 12 37 26 16 14 49 39 74 56 25 17 46 32 48 33
4 4 -87 133 -113 161 -28 30 -102 33 -142 7 -23 -15 -51 -18 -173 -18 -80 0
-181 6 -225 13 -70 11 -664 22 -760 15z m1680 -283 c-3 -5 -14 -10 -23 -9 -14
0 -13 2 3 9 27 11 27 11 20 0z m0 -80 c-3 -5 -12 -10 -18 -10 -7 0 -6 4 3 10
19 12 23 12 15 0z m-345 -45 c0 -2 -25 -12 -55 -20 -30 -9 -57 -21 -60 -26 -8
-11 -45 -12 -45 -1 0 8 34 21 110 41 43 11 50 12 50 6z m-52 -97 c-4 -14 -84
-57 -107 -58 -7 0 -1 10 15 22 16 12 33 28 37 35 10 17 60 17 55 1z m-1308
-48 c-8 -5 -19 -10 -25 -10 -5 0 -3 5 5 10 8 5 20 10 25 10 6 0 3 -5 -5 -10z
m1040 -8 c0 -4 -5 -13 -12 -20 -9 -9 -7 -13 5 -18 23 -8 22 -34 -1 -34 -10 0
-23 -5 -30 -12 -9 -9 -12 -2 -12 33 0 25 3 49 7 52 9 10 43 9 43 -1z m234
-114 c-26 -29 -73 -70 -104 -90 -30 -20 -74 -50 -97 -67 -67 -47 -94 -58 -52
-19 45 41 163 138 194 158 12 8 39 27 61 42 21 15 41 27 43 27 2 1 -18 -23
-45 -51z m-2934 22 c0 -11 -7 -20 -15 -20 -15 0 -21 21 -8 33 12 13 23 7 23
-13z m2630 1 c0 -11 -14 -30 -31 -42 l-31 -22 27 42 c31 46 35 49 35 22z m145
-2 c-4 -5 -35 -23 -68 -39 l-62 -30 39 33 c22 17 51 35 65 38 14 4 27 7 29 8
2 0 0 -4 -3 -10z m-2160 -78 c-9 -8 -36 -10 -30 -2 2 4 11 8 20 8 8 0 13 -3
10 -6z m1960 -21 c-3 -5 -12 -10 -18 -10 -7 0 -6 4 3 10 19 12 23 12 15 0z
m-41 -52 c-10 -12 -33 -36 -53 -53 -28 -25 -32 -26 -23 -8 7 12 20 28 30 35 9
7 23 25 31 41 9 17 18 24 24 18 6 -6 2 -18 -9 -33z m95 29 c-2 -2 -19 -14 -36
-26 -26 -18 -32 -19 -27 -6 4 9 16 21 28 25 21 9 43 13 35 7z m11 -78 c-7 -11
-14 -18 -17 -15 -3 3 0 12 7 21 18 21 23 19 10 -6z m80 -34 c0 -3 -15 -11 -32
-19 -18 -7 -43 -23 -55 -35 -32 -30 -41 -26 -12 5 29 32 99 66 99 49z m-245
-115 c-3 -5 -12 -10 -18 -10 -7 0 -6 4 3 10 19 12 23 12 15 0z m-145 -103 c0
-2 -12 -14 -27 -28 l-28 -24 24 28 c23 25 31 32 31 24z m-175 -87 c-16 -16
-34 -30 -39 -30 -10 1 53 60 63 60 3 0 -8 -13 -24 -30z m-2680 -1090 c-3 -5
-11 -10 -16 -10 -6 0 -7 5 -4 10 3 6 11 10 16 10 6 0 7 -4 4 -10z"/>
<path d="M1474 2998 l-19 -23 23 19 c21 18 27 26 19 26 -2 0 -12 -10 -23 -22z"/>
<path d="M1532 2902 c-31 -24 -26 -61 11 -82 24 -13 30 -13 55 0 36 21 41 62
10 84 -29 21 -47 20 -76 -2z m48 -37 c0 -8 -4 -15 -10 -15 -5 0 -10 7 -10 15
0 8 5 15 10 15 6 0 10 -7 10 -15z"/>
<path d="M199 1473 c-13 -16 -12 -17 4 -4 9 7 17 15 17 17 0 8 -8 3 -21 -13z"/>
<path d="M119 1343 c-13 -16 -12 -17 4 -4 9 7 17 15 17 17 0 8 -8 3 -21 -13z"/>
</g>
</svg>
